<svg width="236" height="491" viewBox="0 0 236 491" fill="none" xmlns="http://www.w3.org/2000/svg">
<path d="M1 100V69L43 100V131L1 100Z" fill="black" stroke="#D9442D"/>
<path d="M193 401V370L235 401V432L193 401Z" fill="black" stroke="#D9442D"/>
<path d="M193 323V292L235 323V354L193 323Z" fill="black" stroke="#D9442D"/>
<path d="M193 245V214L235 245V276L193 245Z" fill="black" stroke="#D9442D"/>
<path d="M193 167V136L235 167V198L193 167Z" fill="black" stroke="#D9442D"/>
<path d="M193 100V69L235 100V131L193 100Z" fill="black" stroke="#D9442D"/>
<path d="M1 401V370L43 401V432L1 401Z" fill="black" stroke="#D9442D"/>
<path d="M1 323V292L43 323V354L1 323Z" fill="black" stroke="#D9442D"/>
<path d="M1 245V214L43 245V276L1 245Z" fill="black" stroke="#D9442D"/>
<path d="M1 167V136L43 167V198L1 167Z" fill="black" stroke="#D9442D"/>
<mask id="path-11-outside-1_22_14" maskUnits="userSpaceOnUse" x="79.051" y="31.8075" width="62.915" height="454.891" fill="black">
<rect fill="white" x="79.051" y="31.8075" width="62.915" height="454.891"/>
<path d="M88.3815 478.34L88.7166 459.143L96.6139 454.096L101.9 459.309L95.9445 463.11L95.7278 475.524L96.9875 476.698L123.16 477.155L126.007 475.348L126.222 463.062L121.758 458.44L127.843 454.513L133.506 460.117L133.171 479.314L124.496 484.923L94.2927 484.396L88.3815 478.34ZM98.5713 440.969L98.9075 421.708L107.583 416.099L128.188 416.458L134.164 422.452L133.829 441.649L125.152 447.322L104.548 446.962L98.5713 440.969ZM123.879 439.619L126.663 437.811L126.879 425.397L125.684 424.224L108.79 423.929L106.006 425.737L105.791 438.087L107.113 439.326L123.879 439.619ZM99.1371 408.551L99.2723 400.808L101.384 400.845L99.3337 397.289L99.5761 383.403L108.187 377.792L134.935 378.259L134.8 386.002L109.46 385.56L106.676 387.368L106.459 399.782L107.783 400.957L134.531 401.424L134.396 409.167L99.1371 408.551ZM90.4779 358.241L90.7415 343.14L96.6349 339.21L101.793 344.421L97.9076 346.977L97.7635 355.232L99.7754 357.316L107.774 357.455L107.954 347.153L115.121 347.278L114.941 357.58L135.29 357.935L135.155 365.678L114.806 365.323L114.717 370.442L107.55 370.317L107.639 365.198L97.1447 365.015L90.4779 358.241ZM99.3077 329.104L99.4954 318.354L108.041 312.806L129.094 313.173L129.299 301.463L136.274 301.585L135.735 332.428L128.76 332.307L128.965 320.596L109.256 320.252L106.407 322.123L106.283 329.226L99.3077 329.104ZM92.4129 320.726L92.5693 311.768L83.6106 311.611L83.4542 320.57L92.4129 320.726ZM87.6704 269.717L87.8055 261.974L136.95 262.832L136.815 270.575L134.703 270.538L136.755 274.03L136.513 287.852L127.772 293.588L107.295 293.231L101.191 287.236L101.432 273.414L103.604 269.995L87.6704 269.717ZM126.563 285.822L129.347 284.014L129.564 271.6L128.432 270.428L111.539 270.134L108.691 271.94L108.476 284.226L109.798 285.53L126.563 285.822ZM101.793 249.057L102.123 230.18L110.927 224.509L122.375 236.038L122.171 247.749L126.778 247.829L129.822 245.834L130.036 233.548L126.45 229.965L132.159 225.584L137.507 230.926L137.177 249.803L128.762 255.225L107.581 254.855L101.793 249.057ZM110.781 247.55L115.708 247.636L115.863 238.741L110.955 233.919L109.465 234.917L109.271 246.051L110.781 247.55ZM102.486 216.705L102.621 208.963L104.733 208.999L102.682 205.443L102.925 191.557L111.536 185.947L138.284 186.414L138.149 194.156L112.809 193.714L110.025 195.522L109.808 207.936L111.132 209.111L137.88 209.578L137.744 217.321L102.486 216.705ZM90.6578 171.909L90.793 164.166L103.335 164.385L103.516 154.019L110.747 154.145L110.566 164.511L128.675 164.828L131.458 163.084L131.552 157.709L127.088 153.086L133.11 149.095L138.839 154.635L138.623 166.986L130.076 172.597L110.431 172.254L110.341 177.374L103.111 177.247L103.2 172.128L90.6578 171.909ZM102.656 137.258L102.844 126.508L111.39 120.96L132.443 121.328L132.647 109.617L139.622 109.739L139.084 140.583L132.109 140.461L132.313 128.751L112.604 128.407L109.755 130.277L109.631 137.38L102.656 137.258ZM95.7616 128.881L95.9179 119.922L86.9593 119.766L86.8029 128.724L95.7616 128.881ZM104.455 96.5405L104.828 75.1677L111.498 70.8035L140.293 71.3061L140.158 79.0489L138.046 79.0121L140.097 82.5684L139.853 96.5183L131.178 102.128L127.786 102.069L117.216 91.5784L117.441 78.6524L111.874 78.5552L111.558 96.6645L104.455 96.5405ZM129.91 94.1044L132.682 92.9366L132.923 79.1787L124.732 79.0357L124.561 88.8262L129.782 94.1021L129.91 94.1044ZM92.5799 61.7929L92.7463 52.2584L96.4359 46.2419L130.799 46.8417L133.583 45.034L133.773 34.1556L140.939 34.2807L140.684 48.9345L132.072 54.5451L99.8853 53.9832L99.7468 61.918L92.5799 61.7929Z"/>
</mask>
<path d="M88.3815 478.34L88.7166 459.143L96.6139 454.096L101.9 459.309L95.9445 463.11L95.7278 475.524L96.9875 476.698L123.16 477.155L126.007 475.348L126.222 463.062L121.758 458.44L127.843 454.513L133.506 460.117L133.171 479.314L124.496 484.923L94.2927 484.396L88.3815 478.34ZM98.5713 440.969L98.9075 421.708L107.583 416.099L128.188 416.458L134.164 422.452L133.829 441.649L125.152 447.322L104.548 446.962L98.5713 440.969ZM123.879 439.619L126.663 437.811L126.879 425.397L125.684 424.224L108.79 423.929L106.006 425.737L105.791 438.087L107.113 439.326L123.879 439.619ZM99.1371 408.551L99.2723 400.808L101.384 400.845L99.3337 397.289L99.5761 383.403L108.187 377.792L134.935 378.259L134.8 386.002L109.46 385.56L106.676 387.368L106.459 399.782L107.783 400.957L134.531 401.424L134.396 409.167L99.1371 408.551ZM90.4779 358.241L90.7415 343.14L96.6349 339.21L101.793 344.421L97.9076 346.977L97.7635 355.232L99.7754 357.316L107.774 357.455L107.954 347.153L115.121 347.278L114.941 357.58L135.29 357.935L135.155 365.678L114.806 365.323L114.717 370.442L107.55 370.317L107.639 365.198L97.1447 365.015L90.4779 358.241ZM99.3077 329.104L99.4954 318.354L108.041 312.806L129.094 313.173L129.299 301.463L136.274 301.585L135.735 332.428L128.76 332.307L128.965 320.596L109.256 320.252L106.407 322.123L106.283 329.226L99.3077 329.104ZM92.4129 320.726L92.5693 311.768L83.6106 311.611L83.4542 320.57L92.4129 320.726ZM87.6704 269.717L87.8055 261.974L136.95 262.832L136.815 270.575L134.703 270.538L136.755 274.03L136.513 287.852L127.772 293.588L107.295 293.231L101.191 287.236L101.432 273.414L103.604 269.995L87.6704 269.717ZM126.563 285.822L129.347 284.014L129.564 271.6L128.432 270.428L111.539 270.134L108.691 271.94L108.476 284.226L109.798 285.53L126.563 285.822ZM101.793 249.057L102.123 230.18L110.927 224.509L122.375 236.038L122.171 247.749L126.778 247.829L129.822 245.834L130.036 233.548L126.45 229.965L132.159 225.584L137.507 230.926L137.177 249.803L128.762 255.225L107.581 254.855L101.793 249.057ZM110.781 247.55L115.708 247.636L115.863 238.741L110.955 233.919L109.465 234.917L109.271 246.051L110.781 247.55ZM102.486 216.705L102.621 208.963L104.733 208.999L102.682 205.443L102.925 191.557L111.536 185.947L138.284 186.414L138.149 194.156L112.809 193.714L110.025 195.522L109.808 207.936L111.132 209.111L137.88 209.578L137.744 217.321L102.486 216.705ZM90.6578 171.909L90.793 164.166L103.335 164.385L103.516 154.019L110.747 154.145L110.566 164.511L128.675 164.828L131.458 163.084L131.552 157.709L127.088 153.086L133.11 149.095L138.839 154.635L138.623 166.986L130.076 172.597L110.431 172.254L110.341 177.374L103.111 177.247L103.2 172.128L90.6578 171.909ZM102.656 137.258L102.844 126.508L111.39 120.96L132.443 121.328L132.647 109.617L139.622 109.739L139.084 140.583L132.109 140.461L132.313 128.751L112.604 128.407L109.755 130.277L109.631 137.38L102.656 137.258ZM95.7616 128.881L95.9179 119.922L86.9593 119.766L86.8029 128.724L95.7616 128.881ZM104.455 96.5405L104.828 75.1677L111.498 70.8035L140.293 71.3061L140.158 79.0489L138.046 79.0121L140.097 82.5684L139.853 96.5183L131.178 102.128L127.786 102.069L117.216 91.5784L117.441 78.6524L111.874 78.5552L111.558 96.6645L104.455 96.5405ZM129.91 94.1044L132.682 92.9366L132.923 79.1787L124.732 79.0357L124.561 88.8262L129.782 94.1021L129.91 94.1044ZM92.5799 61.7929L92.7463 52.2584L96.4359 46.2419L130.799 46.8417L133.583 45.034L133.773 34.1556L140.939 34.2807L140.684 48.9345L132.072 54.5451L99.8853 53.9832L99.7468 61.918L92.5799 61.7929Z" fill="black"/>
<path d="M88.3815 478.34L87.3817 478.323L87.3744 478.74L87.6659 479.039L88.3815 478.34ZM88.7166 459.143L88.1781 458.3L87.7261 458.589L87.7168 459.126L88.7166 459.143ZM96.6139 454.096L97.3161 453.384L96.7479 452.824L96.0754 453.253L96.6139 454.096ZM101.9 459.309L102.438 460.152L103.495 459.478L102.602 458.597L101.9 459.309ZM95.9445 463.11L95.4065 462.267L94.954 462.556L94.9446 463.092L95.9445 463.11ZM95.7278 475.524L94.7279 475.506L94.7202 475.952L95.046 476.255L95.7278 475.524ZM96.9875 476.698L96.3057 477.43L96.5864 477.691L96.97 477.698L96.9875 476.698ZM123.16 477.155L123.142 478.155L123.442 478.16L123.695 477.999L123.16 477.155ZM126.007 475.348L126.543 476.193L126.998 475.904L127.007 475.366L126.007 475.348ZM126.222 463.062L127.222 463.08L127.229 462.665L126.941 462.368L126.222 463.062ZM121.758 458.44L121.216 457.599L120.193 458.259L121.039 459.134L121.758 458.44ZM127.843 454.513L128.547 453.802L127.976 453.238L127.301 453.673L127.843 454.513ZM133.506 460.117L134.506 460.134L134.514 459.707L134.21 459.406L133.506 460.117ZM133.171 479.314L133.714 480.154L134.162 479.864L134.171 479.331L133.171 479.314ZM124.496 484.923L124.479 485.923L124.783 485.929L125.039 485.763L124.496 484.923ZM94.2927 484.396L93.5771 485.095L93.8643 485.389L94.2753 485.396L94.2927 484.396ZM89.3814 478.358L89.7165 459.16L87.7168 459.126L87.3817 478.323L89.3814 478.358ZM89.2551 459.986L97.1524 454.939L96.0754 453.253L88.1781 458.3L89.2551 459.986ZM95.9117 454.808L101.198 460.021L102.602 458.597L97.3161 453.384L95.9117 454.808ZM101.362 458.466L95.4065 462.267L96.4825 463.953L102.438 460.152L101.362 458.466ZM94.9446 463.092L94.7279 475.506L96.7276 475.541L96.9443 463.127L94.9446 463.092ZM95.046 476.255L96.3057 477.43L97.6693 475.967L96.4096 474.792L95.046 476.255ZM96.97 477.698L123.142 478.155L123.177 476.155L97.0049 475.698L96.97 477.698ZM123.695 477.999L126.543 476.193L125.472 474.504L122.624 476.31L123.695 477.999ZM127.007 475.366L127.222 463.08L125.222 463.045L125.008 475.331L127.007 475.366ZM126.941 462.368L122.477 457.745L121.039 459.134L125.503 463.757L126.941 462.368ZM122.3 459.28L128.386 455.353L127.301 453.673L121.216 457.599L122.3 459.28ZM127.14 455.224L132.803 460.828L134.21 459.406L128.547 453.802L127.14 455.224ZM132.507 460.099L132.172 479.296L134.171 479.331L134.506 460.134L132.507 460.099ZM132.628 478.474L123.953 484.084L125.039 485.763L133.714 480.154L132.628 478.474ZM124.514 483.924L94.3102 483.396L94.2753 485.396L124.479 485.923L124.514 483.924ZM95.0083 483.698L89.0971 477.642L87.6659 479.039L93.5771 485.095L95.0083 483.698ZM98.5713 440.969L97.5714 440.952L97.564 441.375L97.8632 441.675L98.5713 440.969ZM98.9075 421.708L98.3645 420.868L97.9169 421.158L97.9076 421.691L98.9075 421.708ZM107.583 416.099L107.6 415.099L107.296 415.094L107.04 415.259L107.583 416.099ZM128.188 416.458L128.896 415.752L128.61 415.466L128.205 415.459L128.188 416.458ZM134.164 422.452L135.164 422.469L135.171 422.045L134.872 421.746L134.164 422.452ZM133.829 441.649L134.376 442.486L134.819 442.196L134.829 441.666L133.829 441.649ZM125.152 447.322L125.135 448.322L125.442 448.327L125.7 448.159L125.152 447.322ZM104.548 446.962L103.839 447.669L104.125 447.955L104.53 447.962L104.548 446.962ZM123.879 439.619L123.861 440.619L124.167 440.624L124.423 440.457L123.879 439.619ZM126.663 437.811L127.207 438.65L127.653 438.36L127.663 437.828L126.663 437.811ZM126.879 425.397L127.879 425.414L127.887 424.984L127.58 424.683L126.879 425.397ZM125.684 424.224L126.384 423.51L126.1 423.231L125.701 423.224L125.684 424.224ZM108.79 423.929L108.808 422.929L108.502 422.924L108.246 423.09L108.79 423.929ZM106.006 425.737L105.462 424.898L105.016 425.188L105.006 425.719L106.006 425.737ZM105.791 438.087L104.791 438.069L104.783 438.513L105.107 438.817L105.791 438.087ZM107.113 439.326L106.43 440.056L106.711 440.319L107.096 440.326L107.113 439.326ZM99.5711 440.987L99.9073 421.726L97.9076 421.691L97.5714 440.952L99.5711 440.987ZM99.4505 422.548L108.126 416.938L107.04 415.259L98.3645 420.868L99.4505 422.548ZM107.565 417.099L128.17 417.458L128.205 415.459L107.6 415.099L107.565 417.099ZM127.479 417.165L133.456 423.158L134.872 421.746L128.896 415.752L127.479 417.165ZM133.164 422.434L132.829 441.631L134.829 441.666L135.164 422.469L133.164 422.434ZM133.282 440.812L124.605 446.485L125.7 448.159L134.376 442.486L133.282 440.812ZM125.17 446.322L104.565 445.963L104.53 447.962L125.135 448.322L125.17 446.322ZM105.256 446.256L99.2794 440.263L97.8632 441.675L103.839 447.669L105.256 446.256ZM124.423 440.457L127.207 438.65L126.118 436.972L123.334 438.78L124.423 440.457ZM127.663 437.828L127.879 425.414L125.88 425.379L125.663 437.794L127.663 437.828ZM127.58 424.683L126.384 423.51L124.983 424.938L126.179 426.111L127.58 424.683ZM125.701 423.224L108.808 422.929L108.773 424.929L125.666 425.224L125.701 423.224ZM108.246 423.09L105.462 424.898L106.551 426.575L109.335 424.768L108.246 423.09ZM105.006 425.719L104.791 438.069L106.791 438.104L107.006 425.754L105.006 425.719ZM105.107 438.817L106.43 440.056L107.797 438.596L106.474 437.357L105.107 438.817ZM107.096 440.326L123.861 440.619L123.896 438.619L107.131 438.326L107.096 440.326ZM99.1371 408.551L98.1373 408.534L98.1198 409.534L99.1197 409.551L99.1371 408.551ZM99.2723 400.808L99.2898 399.809L98.2899 399.791L98.2725 400.791L99.2723 400.808ZM101.384 400.845L101.367 401.845L103.132 401.876L102.25 400.346L101.384 400.845ZM99.3337 397.289L98.3339 397.271L98.3291 397.548L98.4674 397.788L99.3337 397.289ZM99.5761 383.403L99.0302 382.565L98.5855 382.855L98.5763 383.386L99.5761 383.403ZM108.187 377.792L108.205 376.793L107.898 376.787L107.641 376.955L108.187 377.792ZM134.935 378.259L135.935 378.277L135.953 377.277L134.953 377.259L134.935 378.259ZM134.8 386.002L134.783 387.002L135.783 387.019L135.8 386.02L134.8 386.002ZM109.46 385.56L109.477 384.56L109.172 384.555L108.915 384.721L109.46 385.56ZM106.676 387.368L106.131 386.529L105.685 386.818L105.676 387.35L106.676 387.368ZM106.459 399.782L105.459 399.764L105.451 400.224L105.795 400.529L106.459 399.782ZM107.783 400.957L107.119 401.705L107.396 401.95L107.766 401.957L107.783 400.957ZM134.531 401.424L135.531 401.441L135.548 400.441L134.548 400.424L134.531 401.424ZM134.396 409.167L134.378 410.166L135.378 410.184L135.396 409.184L134.396 409.167ZM100.137 408.569L100.272 400.826L98.2725 400.791L98.1373 408.534L100.137 408.569ZM99.2548 401.808L101.367 401.845L101.401 399.845L99.2898 399.809L99.2548 401.808ZM102.25 400.346L100.2 396.789L98.4674 397.788L100.518 401.345L102.25 400.346ZM100.334 397.306L100.576 383.42L98.5763 383.386L98.3339 397.271L100.334 397.306ZM100.122 384.241L108.733 378.63L107.641 376.955L99.0302 382.565L100.122 384.241ZM108.17 378.792L134.918 379.259L134.953 377.259L108.205 376.793L108.17 378.792ZM133.935 378.242L133.8 385.985L135.8 386.02L135.935 378.277L133.935 378.242ZM134.818 385.002L109.477 384.56L109.443 386.56L134.783 387.002L134.818 385.002ZM108.915 384.721L106.131 386.529L107.221 388.206L110.005 386.399L108.915 384.721ZM105.676 387.35L105.459 399.764L107.459 399.799L107.676 387.385L105.676 387.35ZM105.795 400.529L107.119 401.705L108.447 400.209L107.123 399.034L105.795 400.529ZM107.766 401.957L134.513 402.424L134.548 400.424L107.8 399.957L107.766 401.957ZM133.531 401.406L133.396 409.149L135.396 409.184L135.531 401.441L133.531 401.406ZM134.413 408.167L99.1546 407.551L99.1197 409.551L134.378 410.166L134.413 408.167ZM90.4779 358.241L89.478 358.224L89.4707 358.644L89.7652 358.943L90.4779 358.241ZM90.7415 343.14L90.1867 342.308L89.7508 342.598L89.7416 343.122L90.7415 343.14ZM96.6349 339.21L97.3456 338.506L96.7659 337.921L96.0802 338.378L96.6349 339.21ZM101.793 344.421L102.342 345.256L103.362 344.585L102.503 343.717L101.793 344.421ZM97.9076 346.977L97.3579 346.142L96.9169 346.432L96.9077 346.96L97.9076 346.977ZM97.7635 355.232L96.7636 355.215L96.7564 355.629L97.0441 355.927L97.7635 355.232ZM99.7754 357.316L99.0561 358.01L99.3438 358.308L99.758 358.315L99.7754 357.316ZM107.774 357.455L107.757 358.455L108.757 358.472L108.774 357.473L107.774 357.455ZM107.954 347.153L107.971 346.153L106.972 346.135L106.954 347.135L107.954 347.153ZM115.121 347.278L116.121 347.295L116.138 346.295L115.138 346.278L115.121 347.278ZM114.941 357.58L113.941 357.563L113.924 358.563L114.924 358.58L114.941 357.58ZM135.29 357.935L136.29 357.953L136.307 356.953L135.307 356.936L135.29 357.935ZM135.155 365.678L135.137 366.678L136.137 366.696L136.155 365.696L135.155 365.678ZM114.806 365.323L114.823 364.323L113.824 364.306L113.806 365.306L114.806 365.323ZM114.717 370.442L114.699 371.442L115.699 371.46L115.716 370.46L114.717 370.442ZM107.55 370.317L106.55 370.3L106.532 371.3L107.532 371.317L107.55 370.317ZM107.639 365.198L108.639 365.215L108.656 364.216L107.657 364.198L107.639 365.198ZM97.1447 365.015L96.432 365.716L96.7186 366.008L97.1272 366.015L97.1447 365.015ZM91.4777 358.259L91.7413 343.157L89.7416 343.122L89.478 358.224L91.4777 358.259ZM91.2962 343.972L97.1897 340.042L96.0802 338.378L90.1867 342.308L91.2962 343.972ZM95.9242 339.913L101.082 345.124L102.503 343.717L97.3456 338.506L95.9242 339.913ZM101.243 343.585L97.3579 346.142L98.4573 347.813L102.342 345.256L101.243 343.585ZM96.9077 346.96L96.7636 355.215L98.7633 355.25L98.9074 346.995L96.9077 346.96ZM97.0441 355.927L99.0561 358.01L100.495 356.621L98.4828 354.537L97.0441 355.927ZM99.758 358.315L107.757 358.455L107.792 356.455L99.7929 356.316L99.758 358.315ZM108.774 357.473L108.954 347.17L106.954 347.135L106.774 357.438L108.774 357.473ZM107.937 348.153L115.103 348.278L115.138 346.278L107.971 346.153L107.937 348.153ZM114.121 347.26L113.941 357.563L115.941 357.598L116.121 347.295L114.121 347.26ZM114.924 358.58L135.273 358.935L135.307 356.936L114.959 356.58L114.924 358.58ZM134.29 357.918L134.155 365.661L136.155 365.696L136.29 357.953L134.29 357.918ZM135.172 364.678L114.823 364.323L114.789 366.323L135.137 366.678L135.172 364.678ZM113.806 365.306L113.717 370.425L115.716 370.46L115.806 365.341L113.806 365.306ZM114.734 369.442L107.567 369.317L107.532 371.317L114.699 371.442L114.734 369.442ZM108.55 370.335L108.639 365.215L106.639 365.181L106.55 370.3L108.55 370.335ZM107.657 364.198L97.1621 364.015L97.1272 366.015L107.622 366.198L107.657 364.198ZM97.8573 364.313L91.1905 357.54L89.7652 358.943L96.432 365.716L97.8573 364.313ZM99.3077 329.104L98.3079 329.087L98.2904 330.086L99.2903 330.104L99.3077 329.104ZM99.4954 318.354L98.9509 317.515L98.5048 317.805L98.4955 318.336L99.4954 318.354ZM108.041 312.806L108.059 311.806L107.753 311.801L107.497 311.967L108.041 312.806ZM129.094 313.173L129.077 314.173L130.077 314.191L130.094 313.191L129.094 313.173ZM129.299 301.463L129.316 300.463L128.316 300.446L128.299 301.446L129.299 301.463ZM136.274 301.585L137.273 301.602L137.291 300.603L136.291 300.585L136.274 301.585ZM135.735 332.428L135.718 333.428L136.718 333.446L136.735 332.446L135.735 332.428ZM128.76 332.307L127.76 332.289L127.743 333.289L128.743 333.306L128.76 332.307ZM128.965 320.596L129.965 320.614L129.982 319.614L128.982 319.597L128.965 320.596ZM109.256 320.252L109.273 319.252L108.965 319.247L108.707 319.416L109.256 320.252ZM106.407 322.123L105.858 321.287L105.416 321.577L105.407 322.105L106.407 322.123ZM106.283 329.226L106.265 330.226L107.265 330.243L107.283 329.243L106.283 329.226ZM92.4129 320.726L92.3954 321.726L93.3953 321.744L93.4127 320.744L92.4129 320.726ZM92.5693 311.768L93.5691 311.785L93.5866 310.785L92.5867 310.768L92.5693 311.768ZM83.6106 311.611L83.6281 310.612L82.6282 310.594L82.6108 311.594L83.6106 311.611ZM83.4542 320.57L82.4544 320.553L82.4369 321.552L83.4368 321.57L83.4542 320.57ZM100.308 329.122L100.495 318.371L98.4955 318.336L98.3079 329.087L100.308 329.122ZM100.04 319.192L108.586 313.645L107.497 311.967L98.9509 317.515L100.04 319.192ZM108.024 313.806L129.077 314.173L129.112 312.174L108.059 311.806L108.024 313.806ZM130.094 313.191L130.299 301.481L128.299 301.446L128.094 313.156L130.094 313.191ZM129.281 302.463L136.256 302.585L136.291 300.585L129.316 300.463L129.281 302.463ZM135.274 301.568L134.735 332.411L136.735 332.446L137.273 301.602L135.274 301.568ZM135.753 331.428L128.778 331.307L128.743 333.306L135.718 333.428L135.753 331.428ZM129.76 332.324L129.965 320.614L127.965 320.579L127.76 332.289L129.76 332.324ZM128.982 319.597L109.273 319.252L109.238 321.252L128.947 321.596L128.982 319.597ZM108.707 319.416L105.858 321.287L106.955 322.959L109.805 321.088L108.707 319.416ZM105.407 322.105L105.283 329.208L107.283 329.243L107.406 322.14L105.407 322.105ZM106.3 328.226L99.3252 328.104L99.2903 330.104L106.265 330.226L106.3 328.226ZM93.4127 320.744L93.5691 311.785L91.5694 311.75L91.413 320.709L93.4127 320.744ZM92.5867 310.768L83.6281 310.612L83.5932 312.611L92.5518 312.768L92.5867 310.768ZM82.6108 311.594L82.4544 320.553L84.4541 320.588L84.6105 311.629L82.6108 311.594ZM83.4368 321.57L92.3954 321.726L92.4303 319.727L83.4717 319.57L83.4368 321.57ZM87.6704 269.717L86.6705 269.699L86.6531 270.699L87.6529 270.717L87.6704 269.717ZM87.8055 261.974L87.823 260.974L86.8232 260.957L86.8057 261.957L87.8055 261.974ZM136.95 262.832L137.95 262.849L137.967 261.85L136.968 261.832L136.95 262.832ZM136.815 270.575L136.797 271.575L137.797 271.592L137.815 270.592L136.815 270.575ZM134.703 270.538L134.721 269.538L132.938 269.507L133.841 271.044L134.703 270.538ZM136.755 274.03L137.754 274.048L137.759 273.766L137.617 273.524L136.755 274.03ZM136.513 287.852L137.062 288.688L137.504 288.398L137.513 287.87L136.513 287.852ZM127.772 293.588L127.754 294.588L128.063 294.594L128.321 294.424L127.772 293.588ZM107.295 293.231L106.594 293.944L106.879 294.224L107.278 294.231L107.295 293.231ZM101.191 287.236L100.191 287.218L100.183 287.648L100.49 287.949L101.191 287.236ZM101.432 273.414L100.588 272.877L100.437 273.115L100.432 273.396L101.432 273.414ZM103.604 269.995L104.448 270.531L105.404 269.026L103.621 268.995L103.604 269.995ZM126.563 285.822L126.546 286.822L126.851 286.827L127.108 286.661L126.563 285.822ZM129.347 284.014L129.892 284.853L130.338 284.564L130.347 284.032L129.347 284.014ZM129.564 271.6L130.564 271.618L130.571 271.204L130.283 270.906L129.564 271.6ZM128.432 270.428L129.152 269.734L128.864 269.436L128.45 269.429L128.432 270.428ZM111.539 270.134L111.556 269.134L111.256 269.128L111.003 269.289L111.539 270.134ZM108.691 271.94L108.155 271.096L107.7 271.384L107.691 271.923L108.691 271.94ZM108.476 284.226L107.476 284.209L107.469 284.637L107.774 284.938L108.476 284.226ZM109.798 285.53L109.096 286.242L109.38 286.522L109.78 286.529L109.798 285.53ZM88.6702 269.734L88.8054 261.992L86.8057 261.957L86.6705 269.699L88.6702 269.734ZM87.7881 262.974L136.933 263.832L136.968 261.832L87.823 260.974L87.7881 262.974ZM135.95 262.814L135.815 270.557L137.815 270.592L137.95 262.849L135.95 262.814ZM136.832 269.575L134.721 269.538L134.686 271.538L136.797 271.575L136.832 269.575ZM133.841 271.044L135.892 274.537L137.617 273.524L135.565 270.031L133.841 271.044ZM135.755 274.013L135.513 287.835L137.513 287.87L137.754 274.048L135.755 274.013ZM135.965 287.016L127.223 292.752L128.321 294.424L137.062 288.688L135.965 287.016ZM127.789 292.589L107.312 292.231L107.278 294.231L127.754 294.588L127.789 292.589ZM107.996 292.518L101.891 286.522L100.49 287.949L106.594 293.944L107.996 292.518ZM102.191 287.253L102.432 273.431L100.432 273.396L100.191 287.218L102.191 287.253ZM102.276 273.95L104.448 270.531L102.76 269.459L100.588 272.877L102.276 273.95ZM103.621 268.995L87.6878 268.717L87.6529 270.717L103.587 270.995L103.621 268.995ZM127.108 286.661L129.892 284.853L128.803 283.176L126.019 284.983L127.108 286.661ZM130.347 284.032L130.564 271.618L128.564 271.583L128.347 283.997L130.347 284.032ZM130.283 270.906L129.152 269.734L127.713 271.123L128.845 272.295L130.283 270.906ZM128.45 269.429L111.556 269.134L111.521 271.133L128.415 271.428L128.45 269.429ZM111.003 269.289L108.155 271.096L109.226 272.785L112.074 270.978L111.003 269.289ZM107.691 271.923L107.476 284.209L109.476 284.244L109.691 271.958L107.691 271.923ZM107.774 284.938L109.096 286.242L110.5 284.818L109.179 283.514L107.774 284.938ZM109.78 286.529L126.546 286.822L126.581 284.822L109.815 284.53L109.78 286.529ZM101.793 249.057L100.793 249.04L100.786 249.464L101.085 249.764L101.793 249.057ZM102.123 230.18L101.581 229.339L101.132 229.629L101.123 230.163L102.123 230.18ZM110.927 224.509L111.637 223.804L111.066 223.23L110.385 223.668L110.927 224.509ZM122.375 236.038L123.375 236.056L123.383 235.634L123.085 235.334L122.375 236.038ZM122.171 247.749L121.171 247.731L121.154 248.731L122.154 248.749L122.171 247.749ZM126.778 247.829L126.761 248.829L127.069 248.834L127.327 248.665L126.778 247.829ZM129.822 245.834L130.37 246.67L130.812 246.38L130.821 245.851L129.822 245.834ZM130.036 233.548L131.036 233.565L131.043 233.141L130.743 232.84L130.036 233.548ZM126.45 229.965L125.841 229.171L124.936 229.866L125.743 230.672L126.45 229.965ZM132.159 225.584L132.866 224.876L132.246 224.257L131.551 224.79L132.159 225.584ZM137.507 230.926L138.507 230.943L138.514 230.519L138.214 230.218L137.507 230.926ZM137.177 249.803L137.719 250.644L138.168 250.354L138.177 249.82L137.177 249.803ZM128.762 255.225L128.744 256.225L129.048 256.23L129.303 256.066L128.762 255.225ZM107.581 254.855L106.873 255.562L107.159 255.848L107.563 255.855L107.581 254.855ZM110.781 247.55L110.076 248.26L110.362 248.543L110.763 248.55L110.781 247.55ZM115.708 247.636L115.691 248.636L116.69 248.653L116.708 247.653L115.708 247.636ZM115.863 238.741L116.863 238.759L116.871 238.329L116.564 238.028L115.863 238.741ZM110.955 233.919L111.656 233.205L111.075 232.635L110.398 233.088L110.955 233.919ZM109.465 234.917L108.908 234.086L108.474 234.377L108.465 234.9L109.465 234.917ZM109.271 246.051L108.271 246.034L108.263 246.461L108.566 246.761L109.271 246.051ZM102.793 249.075L103.122 230.198L101.123 230.163L100.793 249.04L102.793 249.075ZM102.664 231.021L111.468 225.35L110.385 223.668L101.581 229.339L102.664 231.021ZM110.217 225.214L121.666 236.743L123.085 235.334L111.637 223.804L110.217 225.214ZM121.376 236.021L121.171 247.731L123.171 247.766L123.375 236.056L121.376 236.021ZM122.154 248.749L126.761 248.829L126.796 246.829L122.188 246.749L122.154 248.749ZM127.327 248.665L130.37 246.67L129.273 244.998L126.23 246.993L127.327 248.665ZM130.821 245.851L131.036 233.565L129.036 233.53L128.822 245.816L130.821 245.851ZM130.743 232.84L127.157 229.257L125.743 230.672L129.329 234.255L130.743 232.84ZM127.059 230.758L132.768 226.377L131.551 224.79L125.841 229.171L127.059 230.758ZM131.453 226.291L136.8 231.633L138.214 230.218L132.866 224.876L131.453 226.291ZM136.507 230.908L136.178 249.785L138.177 249.82L138.507 230.943L136.507 230.908ZM136.636 248.962L128.22 254.384L129.303 256.066L137.719 250.644L136.636 248.962ZM128.779 254.225L107.598 253.855L107.563 255.855L128.744 256.225L128.779 254.225ZM108.289 254.149L102.501 248.351L101.085 249.764L106.873 255.562L108.289 254.149ZM110.763 248.55L115.691 248.636L115.725 246.636L110.798 246.55L110.763 248.55ZM116.708 247.653L116.863 238.759L114.863 238.724L114.708 247.618L116.708 247.653ZM116.564 238.028L111.656 233.205L110.254 234.632L115.162 239.455L116.564 238.028ZM110.398 233.088L108.908 234.086L110.022 235.748L111.511 234.75L110.398 233.088ZM108.465 234.9L108.271 246.034L110.271 246.069L110.465 234.934L108.465 234.9ZM108.566 246.761L110.076 248.26L111.485 246.84L109.975 245.341L108.566 246.761ZM102.486 216.705L101.486 216.688L101.469 217.688L102.468 217.705L102.486 216.705ZM102.621 208.963L102.638 207.963L101.639 207.945L101.621 208.945L102.621 208.963ZM104.733 208.999L104.715 209.999L106.481 210.03L105.599 208.5L104.733 208.999ZM102.682 205.443L101.683 205.426L101.678 205.703L101.816 205.943L102.682 205.443ZM102.925 191.557L102.379 190.719L101.934 191.009L101.925 191.54L102.925 191.557ZM111.536 185.947L111.553 184.947L111.247 184.941L110.99 185.109L111.536 185.947ZM138.284 186.414L139.284 186.431L139.301 185.431L138.301 185.414L138.284 186.414ZM138.149 194.156L138.131 195.156L139.131 195.174L139.149 194.174L138.149 194.156ZM112.809 193.714L112.826 192.714L112.52 192.709L112.264 192.875L112.809 193.714ZM110.025 195.522L109.48 194.683L109.034 194.973L109.025 195.504L110.025 195.522ZM109.808 207.936L108.808 207.918L108.8 208.378L109.144 208.684L109.808 207.936ZM111.132 209.111L110.468 209.859L110.744 210.105L111.114 210.111L111.132 209.111ZM137.88 209.578L138.879 209.595L138.897 208.596L137.897 208.578L137.88 209.578ZM137.744 217.321L137.727 218.321L138.727 218.338L138.744 217.338L137.744 217.321ZM103.486 216.723L103.621 208.98L101.621 208.945L101.486 216.688L103.486 216.723ZM102.604 209.962L104.715 209.999L104.75 208L102.638 207.963L102.604 209.962ZM105.599 208.5L103.549 204.944L101.816 205.943L103.866 209.499L105.599 208.5ZM103.682 205.461L103.925 191.575L101.925 191.54L101.683 205.426L103.682 205.461ZM103.471 192.395L112.082 186.785L110.99 185.109L102.379 190.719L103.471 192.395ZM111.519 186.947L138.266 187.413L138.301 185.414L111.553 184.947L111.519 186.947ZM137.284 186.396L137.149 194.139L139.149 194.174L139.284 186.431L137.284 186.396ZM138.166 193.157L112.826 192.714L112.791 194.714L138.131 195.156L138.166 193.157ZM112.264 192.875L109.48 194.683L110.569 196.36L113.353 194.553L112.264 192.875ZM109.025 195.504L108.808 207.918L110.808 207.953L111.025 195.539L109.025 195.504ZM109.144 208.684L110.468 209.859L111.796 208.363L110.472 207.188L109.144 208.684ZM111.114 210.111L137.862 210.578L137.897 208.578L111.149 208.111L111.114 210.111ZM136.88 209.561L136.745 217.303L138.744 217.338L138.879 209.595L136.88 209.561ZM137.762 216.321L102.503 215.706L102.468 217.705L137.727 218.321L137.762 216.321ZM90.6578 171.909L89.658 171.892L89.6405 172.892L90.6404 172.909L90.6578 171.909ZM90.793 164.166L90.8104 163.166L89.8106 163.149L89.7931 164.149L90.793 164.166ZM103.335 164.385L103.318 165.385L104.317 165.403L104.335 164.403L103.335 164.385ZM103.516 154.019L103.533 153.019L102.534 153.002L102.516 154.001L103.516 154.019ZM110.747 154.145L111.747 154.163L111.764 153.163L110.764 153.145L110.747 154.145ZM110.566 164.511L109.566 164.494L109.549 165.494L110.549 165.511L110.566 164.511ZM128.675 164.828L128.658 165.827L128.955 165.833L129.206 165.675L128.675 164.828ZM131.458 163.084L131.989 163.931L132.448 163.643L132.458 163.101L131.458 163.084ZM131.552 157.709L132.552 157.726L132.559 157.312L132.271 157.014L131.552 157.709ZM127.088 153.086L126.535 152.253L125.534 152.916L126.369 153.781L127.088 153.086ZM133.11 149.095L133.806 148.376L133.228 147.817L132.558 148.261L133.11 149.095ZM138.839 154.635L139.838 154.653L139.846 154.219L139.534 153.917L138.839 154.635ZM138.623 166.986L139.172 167.821L139.614 167.531L139.623 167.003L138.623 166.986ZM130.076 172.597L130.058 173.597L130.367 173.602L130.625 173.433L130.076 172.597ZM110.431 172.254L110.448 171.254L109.448 171.237L109.431 172.237L110.431 172.254ZM110.341 177.374L110.324 178.373L111.324 178.391L111.341 177.391L110.341 177.374ZM103.111 177.247L102.111 177.23L102.093 178.23L103.093 178.247L103.111 177.247ZM103.2 172.128L104.2 172.146L104.217 171.146L103.217 171.128L103.2 172.128ZM91.6577 171.927L91.7928 164.184L89.7931 164.149L89.658 171.892L91.6577 171.927ZM90.7755 165.166L103.318 165.385L103.353 163.385L90.8104 163.166L90.7755 165.166ZM104.335 164.403L104.516 154.036L102.516 154.001L102.335 164.368L104.335 164.403ZM103.499 155.019L110.729 155.145L110.764 153.145L103.533 153.019L103.499 155.019ZM109.747 154.128L109.566 164.494L111.566 164.529L111.747 154.163L109.747 154.128ZM110.549 165.511L128.658 165.827L128.693 163.828L110.583 163.512L110.549 165.511ZM129.206 165.675L131.989 163.931L130.927 162.236L128.144 163.98L129.206 165.675ZM132.458 163.101L132.552 157.726L130.552 157.691L130.458 163.066L132.458 163.101ZM132.271 157.014L127.807 152.391L126.369 153.781L130.833 158.403L132.271 157.014ZM127.64 153.92L133.663 149.928L132.558 148.261L126.535 152.253L127.64 153.92ZM132.415 149.813L138.143 155.354L139.534 153.917L133.806 148.376L132.415 149.813ZM137.839 154.618L137.623 166.968L139.623 167.003L139.838 154.653L137.839 154.618ZM138.074 166.15L129.527 171.761L130.625 173.433L139.172 167.821L138.074 166.15ZM130.093 171.597L110.448 171.254L110.413 173.254L130.058 173.597L130.093 171.597ZM109.431 172.237L109.342 177.356L111.341 177.391L111.431 172.272L109.431 172.237ZM110.359 176.374L103.128 176.247L103.093 178.247L110.324 178.373L110.359 176.374ZM104.11 177.265L104.2 172.146L102.2 172.111L102.111 177.23L104.11 177.265ZM103.217 171.128L90.6753 170.909L90.6404 172.909L103.182 173.128L103.217 171.128ZM102.656 137.258L101.657 137.241L101.639 138.241L102.639 138.258L102.656 137.258ZM102.844 126.508L102.3 125.669L101.853 125.959L101.844 126.49L102.844 126.508ZM111.39 120.96L111.408 119.96L111.102 119.955L110.846 120.121L111.39 120.96ZM132.443 121.328L132.426 122.328L133.425 122.345L133.443 121.345L132.443 121.328ZM132.647 109.617L132.665 108.618L131.665 108.6L131.648 109.6L132.647 109.617ZM139.622 109.739L140.622 109.757L140.64 108.757L139.64 108.739L139.622 109.739ZM139.084 140.583L139.066 141.582L140.066 141.6L140.084 140.6L139.084 140.583ZM132.109 140.461L131.109 140.443L131.092 141.443L132.092 141.461L132.109 140.461ZM132.313 128.751L133.313 128.768L133.331 127.768L132.331 127.751L132.313 128.751ZM112.604 128.407L112.622 127.407L112.313 127.401L112.056 127.571L112.604 128.407ZM109.755 130.277L109.206 129.441L108.765 129.731L108.755 130.26L109.755 130.277ZM109.631 137.38L109.614 138.38L110.614 138.397L110.631 137.397L109.631 137.38ZM95.7616 128.881L95.7441 129.881L96.744 129.898L96.7614 128.898L95.7616 128.881ZM95.9179 119.922L96.9178 119.939L96.9352 118.94L95.9354 118.922L95.9179 119.922ZM86.9593 119.766L86.9767 118.766L85.9769 118.748L85.9594 119.748L86.9593 119.766ZM86.8029 128.724L85.8031 128.707L85.7856 129.707L86.7855 129.724L86.8029 128.724ZM103.656 137.276L103.844 126.525L101.844 126.49L101.657 137.241L103.656 137.276ZM103.389 127.347L111.935 121.799L110.846 120.121L102.3 125.669L103.389 127.347ZM111.373 121.96L132.426 122.328L132.46 120.328L111.408 119.96L111.373 121.96ZM133.443 121.345L133.647 109.635L131.648 109.6L131.443 121.31L133.443 121.345ZM132.63 110.617L139.605 110.739L139.64 108.739L132.665 108.618L132.63 110.617ZM138.622 109.722L138.084 140.565L140.084 140.6L140.622 109.757L138.622 109.722ZM139.101 139.583L132.126 139.461L132.092 141.461L139.066 141.582L139.101 139.583ZM133.109 140.478L133.313 128.768L131.314 128.733L131.109 140.443L133.109 140.478ZM132.331 127.751L112.622 127.407L112.587 129.406L132.296 129.75L132.331 127.751ZM112.056 127.571L109.206 129.441L110.304 131.113L113.153 129.242L112.056 127.571ZM108.755 130.26L108.631 137.363L110.631 137.397L110.755 130.295L108.755 130.26ZM109.649 136.38L102.674 136.258L102.639 138.258L109.614 138.38L109.649 136.38ZM96.7614 128.898L96.9178 119.939L94.9181 119.905L94.7617 128.863L96.7614 128.898ZM95.9354 118.922L86.9767 118.766L86.9418 120.766L95.9005 120.922L95.9354 118.922ZM85.9594 119.748L85.8031 128.707L87.8028 128.742L87.9591 119.783L85.9594 119.748ZM86.7855 129.724L95.7441 129.881L95.779 127.881L86.8204 127.724L86.7855 129.724ZM104.455 96.5405L103.455 96.523L103.438 97.5229L104.438 97.5403L104.455 96.5405ZM104.828 75.1677L104.281 74.331L103.838 74.6209L103.829 75.1503L104.828 75.1677ZM111.498 70.8035L111.515 69.8036L111.207 69.7982L110.95 69.9667L111.498 70.8035ZM140.293 71.3061L141.293 71.3235L141.31 70.3237L140.311 70.3062L140.293 71.3061ZM140.158 79.0489L140.141 80.0488L141.14 80.0662L141.158 79.0664L140.158 79.0489ZM138.046 79.0121L138.064 78.0122L136.298 77.9814L137.18 79.5115L138.046 79.0121ZM140.097 82.5684L141.096 82.5858L141.101 82.3089L140.963 82.0689L140.097 82.5684ZM139.853 96.5183L140.396 97.358L140.844 97.0686L140.853 96.5357L139.853 96.5183ZM131.178 102.128L131.16 103.128L131.465 103.133L131.721 102.967L131.178 102.128ZM127.786 102.069L127.082 102.778L127.367 103.061L127.769 103.068L127.786 102.069ZM117.216 91.5784L116.216 91.561L116.209 91.9876L116.511 92.2882L117.216 91.5784ZM117.441 78.6524L118.441 78.6698L118.459 77.67L117.459 77.6525L117.441 78.6524ZM111.874 78.5552L111.892 77.5554L110.892 77.5379L110.874 78.5378L111.874 78.5552ZM111.558 96.6645L111.541 97.6643L112.541 97.6818L112.558 96.6819L111.558 96.6645ZM129.91 94.1044L129.892 95.1042L130.103 95.1079L130.298 95.026L129.91 94.1044ZM132.682 92.9366L133.071 93.8582L133.671 93.6053L133.682 92.954L132.682 92.9366ZM132.923 79.1787L133.922 79.1961L133.94 78.1963L132.94 78.1788L132.923 79.1787ZM124.732 79.0357L124.749 78.0358L123.749 78.0184L123.732 79.0182L124.732 79.0357ZM124.561 88.8262L123.561 88.8087L123.554 89.2301L123.85 89.5296L124.561 88.8262ZM129.782 94.1021L129.071 94.8055L129.357 95.0949L129.764 95.102L129.782 94.1021ZM105.455 96.5579L105.828 75.1852L103.829 75.1503L103.455 96.523L105.455 96.5579ZM105.376 76.0045L112.045 71.6402L110.95 69.9667L104.281 74.331L105.376 76.0045ZM111.48 71.8033L140.276 72.3059L140.311 70.3062L111.515 69.8036L111.48 71.8033ZM139.293 71.2886L139.158 79.0315L141.158 79.0664L141.293 71.3235L139.293 71.2886ZM140.175 78.0491L138.064 78.0122L138.029 80.0119L140.141 80.0488L140.175 78.0491ZM137.18 79.5115L139.23 83.0678L140.963 82.0689L138.913 78.5126L137.18 79.5115ZM139.097 82.5509L138.853 96.5008L140.853 96.5357L141.096 82.5858L139.097 82.5509ZM139.31 95.6785L130.635 101.288L131.721 102.967L140.396 97.358L139.31 95.6785ZM131.195 101.128L127.804 101.069L127.769 103.068L131.16 103.128L131.195 101.128ZM128.491 101.359L117.92 90.8686L116.511 92.2882L127.082 102.778L128.491 101.359ZM118.216 91.5959L118.441 78.6698L116.442 78.6349L116.216 91.561L118.216 91.5959ZM117.459 77.6525L111.892 77.5554L111.857 79.5551L117.424 79.6522L117.459 77.6525ZM110.874 78.5378L110.558 96.647L112.558 96.6819L112.874 78.5727L110.874 78.5378ZM111.576 95.6646L104.473 95.5406L104.438 97.5403L111.541 97.6643L111.576 95.6646ZM130.298 95.026L133.071 93.8582L132.294 92.015L129.522 93.1828L130.298 95.026ZM133.682 92.954L133.922 79.1961L131.923 79.1612L131.683 92.9191L133.682 92.954ZM132.94 78.1788L124.749 78.0358L124.714 80.0355L132.905 80.1785L132.94 78.1788ZM123.732 79.0182L123.561 88.8087L125.561 88.8437L125.732 79.0531L123.732 79.0182ZM123.85 89.5296L129.071 94.8055L130.493 93.3987L125.272 88.1228L123.85 89.5296ZM129.764 95.102L129.892 95.1042L129.927 93.1045L129.799 93.1023L129.764 95.102ZM92.5799 61.7929L91.5801 61.7755L91.5626 62.7753L92.5625 62.7928L92.5799 61.7929ZM92.7463 52.2584L91.8939 51.7356L91.7513 51.9682L91.7465 52.2409L92.7463 52.2584ZM96.4359 46.2419L96.4534 45.242L95.8821 45.232L95.5834 45.7191L96.4359 46.2419ZM130.799 46.8417L130.781 47.8415L131.087 47.8469L131.343 47.6804L130.799 46.8417ZM133.583 45.034L134.127 45.8727L134.573 45.5831L134.582 45.0514L133.583 45.034ZM133.773 34.1556L133.79 33.1558L132.79 33.1383L132.773 34.1382L133.773 34.1556ZM140.939 34.2807L141.939 34.2982L141.957 33.2983L140.957 33.2809L140.939 34.2807ZM140.684 48.9345L141.23 49.7724L141.674 49.4826L141.684 48.952L140.684 48.9345ZM132.072 54.5451L132.055 55.5449L132.361 55.5503L132.618 55.3829L132.072 54.5451ZM99.8853 53.9832L99.9028 52.9834L98.9029 52.9659L98.8855 53.9658L99.8853 53.9832ZM99.7468 61.918L99.7294 62.9179L100.729 62.9353L100.747 61.9355L99.7468 61.918ZM93.5798 61.8104L93.7462 52.2758L91.7465 52.2409L91.5801 61.7755L93.5798 61.8104ZM93.5988 52.7812L97.2884 46.7646L95.5834 45.7191L91.8939 51.7356L93.5988 52.7812ZM96.4185 47.2417L130.781 47.8415L130.816 45.8418L96.4534 45.242L96.4185 47.2417ZM131.343 47.6804L134.127 45.8727L133.038 44.1953L130.254 46.003L131.343 47.6804ZM134.582 45.0514L134.772 34.1731L132.773 34.1382L132.583 45.0165L134.582 45.0514ZM133.755 35.1555L140.922 35.2806L140.957 33.2809L133.79 33.1558L133.755 35.1555ZM139.94 34.2633L139.684 48.9171L141.684 48.952L141.939 34.2982L139.94 34.2633ZM140.138 48.0966L131.527 53.7072L132.618 55.3829L141.23 49.7724L140.138 48.0966ZM132.09 53.5452L99.9028 52.9834L99.8679 54.9831L132.055 55.5449L132.09 53.5452ZM98.8855 53.9658L98.747 61.9006L100.747 61.9355L100.885 54.0007L98.8855 53.9658ZM99.7643 60.9182L92.5974 60.7931L92.5625 62.7928L99.7294 62.9179L99.7643 60.9182Z" fill="#D9442D" mask="url(#path-11-outside-1_22_14)"/>
</svg>
