<svg width="236" height="491" viewBox="0 0 236 491" fill="none" xmlns="http://www.w3.org/2000/svg">
<path d="M235 390.236V421.236L193 390.236V359.236L235 390.236Z" fill="black" stroke="#D9442D"/>
<path d="M43 89.2359V120.236L1 89.2359V58.2359L43 89.2359Z" fill="black" stroke="#D9442D"/>
<path d="M43 167.236V198.236L1 167.236V136.236L43 167.236Z" fill="black" stroke="#D9442D"/>
<path d="M43 245.236V276.236L1 245.236V214.236L43 245.236Z" fill="black" stroke="#D9442D"/>
<path d="M43 323.236V354.236L1 323.236V292.236L43 323.236Z" fill="black" stroke="#D9442D"/>
<path d="M43 390.236V421.236L1 390.236V359.236L43 390.236Z" fill="black" stroke="#D9442D"/>
<path d="M235 89.2359V120.236L193 89.2359V58.2359L235 89.2359Z" fill="black" stroke="#D9442D"/>
<path d="M235 167.236V198.236L193 167.236V136.236L235 167.236Z" fill="black" stroke="#D9442D"/>
<path d="M235 245.236V276.236L193 245.236V214.236L235 245.236Z" fill="black" stroke="#D9442D"/>
<path d="M235 323.236V354.236L193 323.236V292.236L235 323.236Z" fill="black" stroke="#D9442D"/>
<mask id="path-11-outside-1_22_15" maskUnits="userSpaceOnUse" x="94.034" y="3.53756" width="62.915" height="454.891" fill="black">
<rect fill="white" x="94.034" y="3.53756" width="62.915" height="454.891"/>
<path d="M147.618 11.8957L147.283 31.0928L139.386 36.1397L134.1 30.9267L140.056 27.1261L140.272 14.7119L139.013 13.5378L112.84 13.0809L109.993 14.8875L109.778 27.1736L114.242 31.7963L108.157 35.7227L102.494 30.119L102.829 10.9219L111.504 5.31244L141.707 5.83964L147.618 11.8957ZM137.429 49.2666L137.093 68.5276L128.417 74.1371L107.812 73.7774L101.836 67.7842L102.171 48.5872L110.848 42.9137L131.452 43.2734L137.429 49.2666ZM112.121 50.6171L109.337 52.4248L109.121 64.8389L110.316 66.012L127.21 66.3068L129.994 64.4991L130.209 52.149L128.887 50.9098L112.121 50.6171ZM136.863 81.6846L136.728 89.4275L134.616 89.3906L136.666 92.9469L136.424 106.833L127.813 112.443L101.065 111.976L101.2 104.234L126.54 104.676L129.324 102.868L129.541 90.4542L128.217 89.2789L101.469 88.812L101.604 81.0692L136.863 81.6846ZM145.522 131.994L145.259 147.096L139.365 151.026L134.207 145.815L138.092 143.258L138.237 135.004L136.225 132.92L128.226 132.781L128.046 143.083L120.879 142.958L121.059 132.656L100.71 132.3L100.845 124.558L121.194 124.913L121.283 119.794L128.45 119.919L128.361 125.038L138.855 125.221L145.522 131.994ZM136.692 161.132L136.505 171.882L127.959 177.43L106.906 177.062L106.701 188.773L99.7264 188.651L100.265 157.808L107.24 157.929L107.035 169.639L126.744 169.984L129.593 168.113L129.717 161.01L136.692 161.132ZM143.587 169.509L143.431 178.468L152.389 178.624L152.546 169.666L143.587 169.509ZM148.33 220.519L148.194 228.262L99.0499 227.404L99.1851 219.661L101.297 219.698L99.2454 216.206L99.4867 202.384L108.228 196.647L128.705 197.005L134.809 203L134.568 216.822L132.396 220.241L148.33 220.519ZM109.437 204.414L106.653 206.221L106.436 218.635L107.568 219.807L124.461 220.102L127.309 218.296L127.524 206.01L126.202 204.706L109.437 204.414ZM134.207 241.179L133.877 260.056L125.073 265.727L113.625 254.197L113.829 242.487L109.222 242.407L106.178 244.402L105.964 256.688L109.55 260.271L103.841 264.652L98.493 259.31L98.8225 240.433L107.238 235.011L128.419 235.381L134.207 241.179ZM125.219 242.686L120.292 242.6L120.137 251.495L125.045 256.317L126.535 255.319L126.729 244.185L125.219 242.686ZM133.514 273.53L133.379 281.273L131.267 281.236L133.318 284.793L133.075 298.679L124.464 304.289L97.7161 303.822L97.8512 296.079L123.191 296.522L125.975 294.714L126.192 282.3L124.868 281.125L98.1204 280.658L98.2555 272.915L133.514 273.53ZM145.342 318.327L145.207 326.069L132.665 325.851L132.484 336.217L125.253 336.091L125.434 325.724L107.325 325.408L104.542 327.152L104.448 332.527L108.912 337.15L102.89 341.141L97.1614 335.6L97.3769 323.25L105.924 317.639L125.569 317.982L125.659 312.862L132.889 312.989L132.8 318.108L145.342 318.327ZM133.344 352.978L133.156 363.728L124.61 369.276L103.557 368.908L103.353 380.618L96.3777 380.497L96.9161 349.653L103.891 349.775L103.687 361.485L123.396 361.829L126.245 359.959L126.369 352.856L133.344 352.978ZM140.238 361.355L140.082 370.314L149.041 370.47L149.197 361.512L140.238 361.355ZM131.545 393.695L131.172 415.068L124.502 419.432L95.7068 418.93L95.842 411.187L97.9537 411.224L95.9034 407.667L96.1469 393.718L104.822 388.108L108.214 388.167L118.784 398.657L118.559 411.583L124.126 411.681L124.442 393.571L131.545 393.695ZM106.09 396.131L103.318 397.299L103.077 411.057L111.268 411.2L111.439 401.41L106.218 396.134L106.09 396.131ZM143.42 428.443L143.254 437.977L139.564 443.994L105.201 443.394L102.417 445.202L102.227 456.08L95.0606 455.955L95.3163 441.301L103.928 435.691L136.115 436.253L136.253 428.318L143.42 428.443Z"/>
</mask>
<path d="M147.618 11.8957L147.283 31.0928L139.386 36.1397L134.1 30.9267L140.056 27.1261L140.272 14.7119L139.013 13.5378L112.84 13.0809L109.993 14.8875L109.778 27.1736L114.242 31.7963L108.157 35.7227L102.494 30.119L102.829 10.9219L111.504 5.31244L141.707 5.83964L147.618 11.8957ZM137.429 49.2666L137.093 68.5276L128.417 74.1371L107.812 73.7774L101.836 67.7842L102.171 48.5872L110.848 42.9137L131.452 43.2734L137.429 49.2666ZM112.121 50.6171L109.337 52.4248L109.121 64.8389L110.316 66.012L127.21 66.3068L129.994 64.4991L130.209 52.149L128.887 50.9098L112.121 50.6171ZM136.863 81.6846L136.728 89.4275L134.616 89.3906L136.666 92.9469L136.424 106.833L127.813 112.443L101.065 111.976L101.2 104.234L126.54 104.676L129.324 102.868L129.541 90.4542L128.217 89.2789L101.469 88.812L101.604 81.0692L136.863 81.6846ZM145.522 131.994L145.259 147.096L139.365 151.026L134.207 145.815L138.092 143.258L138.237 135.004L136.225 132.92L128.226 132.781L128.046 143.083L120.879 142.958L121.059 132.656L100.71 132.3L100.845 124.558L121.194 124.913L121.283 119.794L128.45 119.919L128.361 125.038L138.855 125.221L145.522 131.994ZM136.692 161.132L136.505 171.882L127.959 177.43L106.906 177.062L106.701 188.773L99.7264 188.651L100.265 157.808L107.24 157.929L107.035 169.639L126.744 169.984L129.593 168.113L129.717 161.01L136.692 161.132ZM143.587 169.509L143.431 178.468L152.389 178.624L152.546 169.666L143.587 169.509ZM148.33 220.519L148.194 228.262L99.0499 227.404L99.1851 219.661L101.297 219.698L99.2454 216.206L99.4867 202.384L108.228 196.647L128.705 197.005L134.809 203L134.568 216.822L132.396 220.241L148.33 220.519ZM109.437 204.414L106.653 206.221L106.436 218.635L107.568 219.807L124.461 220.102L127.309 218.296L127.524 206.01L126.202 204.706L109.437 204.414ZM134.207 241.179L133.877 260.056L125.073 265.727L113.625 254.197L113.829 242.487L109.222 242.407L106.178 244.402L105.964 256.688L109.55 260.271L103.841 264.652L98.493 259.31L98.8225 240.433L107.238 235.011L128.419 235.381L134.207 241.179ZM125.219 242.686L120.292 242.6L120.137 251.495L125.045 256.317L126.535 255.319L126.729 244.185L125.219 242.686ZM133.514 273.53L133.379 281.273L131.267 281.236L133.318 284.793L133.075 298.679L124.464 304.289L97.7161 303.822L97.8512 296.079L123.191 296.522L125.975 294.714L126.192 282.3L124.868 281.125L98.1204 280.658L98.2555 272.915L133.514 273.53ZM145.342 318.327L145.207 326.069L132.665 325.851L132.484 336.217L125.253 336.091L125.434 325.724L107.325 325.408L104.542 327.152L104.448 332.527L108.912 337.15L102.89 341.141L97.1614 335.6L97.3769 323.25L105.924 317.639L125.569 317.982L125.659 312.862L132.889 312.989L132.8 318.108L145.342 318.327ZM133.344 352.978L133.156 363.728L124.61 369.276L103.557 368.908L103.353 380.618L96.3777 380.497L96.9161 349.653L103.891 349.775L103.687 361.485L123.396 361.829L126.245 359.959L126.369 352.856L133.344 352.978ZM140.238 361.355L140.082 370.314L149.041 370.47L149.197 361.512L140.238 361.355ZM131.545 393.695L131.172 415.068L124.502 419.432L95.7068 418.93L95.842 411.187L97.9537 411.224L95.9034 407.667L96.1469 393.718L104.822 388.108L108.214 388.167L118.784 398.657L118.559 411.583L124.126 411.681L124.442 393.571L131.545 393.695ZM106.09 396.131L103.318 397.299L103.077 411.057L111.268 411.2L111.439 401.41L106.218 396.134L106.09 396.131ZM143.42 428.443L143.254 437.977L139.564 443.994L105.201 443.394L102.417 445.202L102.227 456.08L95.0606 455.955L95.3163 441.301L103.928 435.691L136.115 436.253L136.253 428.318L143.42 428.443Z" fill="black"/>
<path d="M147.618 11.8957L148.618 11.9132L148.626 11.4959L148.334 11.1972L147.618 11.8957ZM147.283 31.0928L147.822 31.9354L148.274 31.6466L148.283 31.1103L147.283 31.0928ZM139.386 36.1397L138.684 36.8517L139.252 37.4121L139.925 36.9824L139.386 36.1397ZM134.1 30.9267L133.562 30.0837L132.505 30.7583L133.398 31.6387L134.1 30.9267ZM140.056 27.1261L140.593 27.969L141.046 27.6802L141.055 27.1435L140.056 27.1261ZM140.272 14.7119L141.272 14.7294L141.28 14.2841L140.954 13.9804L140.272 14.7119ZM139.013 13.5378L139.694 12.8063L139.414 12.5446L139.03 12.5379L139.013 13.5378ZM112.84 13.0809L112.858 12.0811L112.558 12.0759L112.305 12.2365L112.84 13.0809ZM109.993 14.8875L109.457 14.0431L109.002 14.3316L108.993 14.8701L109.993 14.8875ZM109.778 27.1736L108.778 27.1562L108.771 27.5703L109.059 27.8683L109.778 27.1736ZM114.242 31.7963L114.784 32.6365L115.807 31.9769L114.961 31.1016L114.242 31.7963ZM108.157 35.7227L107.453 36.4335L108.024 36.9983L108.699 36.5629L108.157 35.7227ZM102.494 30.119L101.494 30.1015L101.486 30.529L101.79 30.8298L102.494 30.119ZM102.829 10.9219L102.286 10.0821L101.838 10.3715L101.829 10.9044L102.829 10.9219ZM111.504 5.31244L111.521 4.31259L111.217 4.30727L110.961 4.47269L111.504 5.31244ZM141.707 5.83964L142.423 5.14114L142.136 4.84697L141.725 4.83979L141.707 5.83964ZM146.619 11.8783L146.284 31.0754L148.283 31.1103L148.618 11.9132L146.619 11.8783ZM146.745 30.2502L138.848 35.2971L139.925 36.9824L147.822 31.9354L146.745 30.2502ZM140.088 35.4278L134.802 30.2147L133.398 31.6387L138.684 36.8517L140.088 35.4278ZM134.638 31.7697L140.593 27.969L139.518 26.2831L133.562 30.0837L134.638 31.7697ZM141.055 27.1435L141.272 14.7294L139.272 14.6945L139.056 27.1086L141.055 27.1435ZM140.954 13.9804L139.694 12.8063L138.331 14.2693L139.59 15.4435L140.954 13.9804ZM139.03 12.5379L112.858 12.0811L112.823 14.0808L138.995 14.5376L139.03 12.5379ZM112.305 12.2365L109.457 14.0431L110.528 15.732L113.376 13.9254L112.305 12.2365ZM108.993 14.8701L108.778 27.1562L110.778 27.1911L110.992 14.905L108.993 14.8701ZM109.059 27.8683L113.523 32.4909L114.961 31.1016L110.497 26.479L109.059 27.8683ZM113.7 30.956L107.614 34.8824L108.699 36.5629L114.784 32.6365L113.7 30.956ZM108.86 35.0118L103.197 29.4081L101.79 30.8298L107.453 36.4335L108.86 35.0118ZM103.493 30.1364L103.828 10.9393L101.829 10.9044L101.494 30.1015L103.493 30.1364ZM103.372 11.7616L112.047 6.15218L110.961 4.47269L102.286 10.0821L103.372 11.7616ZM111.486 6.31228L141.69 6.83949L141.725 4.83979L111.521 4.31259L111.486 6.31228ZM140.992 6.53813L146.903 12.5942L148.334 11.1972L142.423 5.14114L140.992 6.53813ZM137.429 49.2666L138.429 49.284L138.436 48.8605L138.137 48.5605L137.429 49.2666ZM137.093 68.5276L137.635 69.3674L138.083 69.078L138.092 68.5451L137.093 68.5276ZM128.417 74.1371L128.4 75.137L128.704 75.1423L128.96 74.9768L128.417 74.1371ZM107.812 73.7774L107.104 74.4836L107.39 74.7702L107.795 74.7773L107.812 73.7774ZM101.836 67.7842L100.836 67.7668L100.829 68.1904L101.128 68.4903L101.836 67.7842ZM102.171 48.5872L101.624 47.7502L101.181 48.0401L101.171 48.5697L102.171 48.5872ZM110.848 42.9137L110.865 41.9139L110.558 41.9085L110.3 42.0768L110.848 42.9137ZM131.452 43.2734L132.161 42.5673L131.875 42.2806L131.47 42.2735L131.452 43.2734ZM112.121 50.6171L112.139 49.6173L111.833 49.6119L111.577 49.7784L112.121 50.6171ZM109.337 52.4248L108.793 51.5861L108.347 51.8757L108.337 52.4073L109.337 52.4248ZM109.121 64.8389L108.121 64.8215L108.113 65.2515L108.42 65.5528L109.121 64.8389ZM110.316 66.012L109.616 66.7258L109.9 67.0049L110.299 67.0118L110.316 66.012ZM127.21 66.3068L127.192 67.3067L127.498 67.312L127.754 67.1455L127.21 66.3068ZM129.994 64.4991L130.538 65.3378L130.984 65.0483L130.994 64.5166L129.994 64.4991ZM130.209 52.149L131.209 52.1665L131.217 51.7228L130.893 51.4193L130.209 52.149ZM128.887 50.9098L129.57 50.18L129.289 49.9166L128.904 49.9099L128.887 50.9098ZM136.429 49.2491L136.093 68.5102L138.092 68.5451L138.429 49.284L136.429 49.2491ZM136.55 67.6879L127.874 73.2974L128.96 74.9768L137.635 69.3674L136.55 67.6879ZM128.435 73.1373L107.83 72.7776L107.795 74.7773L128.4 75.137L128.435 73.1373ZM108.521 73.0713L102.544 67.0781L101.128 68.4903L107.104 74.4836L108.521 73.0713ZM102.836 67.8017L103.171 48.6046L101.171 48.5697L100.836 67.7668L102.836 67.8017ZM102.718 49.4241L111.395 43.7507L110.3 42.0768L101.624 47.7502L102.718 49.4241ZM110.83 43.9136L131.435 44.2732L131.47 42.2735L110.865 41.9139L110.83 43.9136ZM130.744 43.9795L136.721 49.9727L138.137 48.5605L132.161 42.5673L130.744 43.9795ZM111.577 49.7784L108.793 51.5861L109.882 53.2635L112.666 51.4558L111.577 49.7784ZM108.337 52.4073L108.121 64.8215L110.12 64.8564L110.337 52.4423L108.337 52.4073ZM108.42 65.5528L109.616 66.7258L111.017 65.2981L109.821 64.1251L108.42 65.5528ZM110.299 67.0118L127.192 67.3067L127.227 65.307L110.334 65.0121L110.299 67.0118ZM127.754 67.1455L130.538 65.3378L129.449 63.6604L126.665 65.4681L127.754 67.1455ZM130.994 64.5166L131.209 52.1665L129.209 52.1316L128.994 64.4817L130.994 64.5166ZM130.893 51.4193L129.57 50.18L128.203 51.6395L129.526 52.8787L130.893 51.4193ZM128.904 49.9099L112.139 49.6173L112.104 51.617L128.869 51.9096L128.904 49.9099ZM136.863 81.6846L137.863 81.7021L137.88 80.7022L136.88 80.6848L136.863 81.6846ZM136.728 89.4275L136.71 90.4273L137.71 90.4448L137.728 89.4449L136.728 89.4275ZM134.616 89.3906L134.633 88.3908L132.868 88.3599L133.75 89.8901L134.616 89.3906ZM136.666 92.9469L137.666 92.9644L137.671 92.6874L137.533 92.4475L136.666 92.9469ZM136.424 106.833L136.97 107.671L137.414 107.381L137.424 106.85L136.424 106.833ZM127.813 112.443L127.795 113.443L128.102 113.449L128.359 113.281L127.813 112.443ZM101.065 111.976L100.065 111.959L100.047 112.959L101.047 112.976L101.065 111.976ZM101.2 104.234L101.217 103.234L100.217 103.216L100.2 104.216L101.2 104.234ZM126.54 104.676L126.523 105.676L126.828 105.681L127.085 105.515L126.54 104.676ZM129.324 102.868L129.869 103.707L130.315 103.417L130.324 102.886L129.324 102.868ZM129.541 90.4542L130.541 90.4716L130.549 90.0118L130.205 89.7064L129.541 90.4542ZM128.217 89.2789L128.881 88.5311L128.604 88.2855L128.234 88.2791L128.217 89.2789ZM101.469 88.812L100.469 88.7946L100.452 89.7944L101.452 89.8119L101.469 88.812ZM101.604 81.0692L101.622 80.0694L100.622 80.0519L100.604 81.0518L101.604 81.0692ZM135.863 81.6672L135.728 89.41L137.728 89.4449L137.863 81.7021L135.863 81.6672ZM136.745 88.4276L134.633 88.3908L134.599 90.3905L136.71 90.4273L136.745 88.4276ZM133.75 89.8901L135.8 93.4464L137.533 92.4475L135.482 88.8912L133.75 89.8901ZM135.666 92.9295L135.424 106.815L137.424 106.85L137.666 92.9644L135.666 92.9295ZM135.878 105.995L127.267 111.606L128.359 113.281L136.97 107.671L135.878 105.995ZM127.83 111.444L101.082 110.977L101.047 112.976L127.795 113.443L127.83 111.444ZM102.065 111.994L102.2 104.251L100.2 104.216L100.065 111.959L102.065 111.994ZM101.182 105.234L126.523 105.676L126.557 103.676L101.217 103.234L101.182 105.234ZM127.085 105.515L129.869 103.707L128.779 102.03L125.995 103.837L127.085 105.515ZM130.324 102.886L130.541 90.4716L128.541 90.4367L128.324 102.851L130.324 102.886ZM130.205 89.7064L128.881 88.5311L127.553 90.0267L128.877 91.202L130.205 89.7064ZM128.234 88.2791L101.487 87.8122L101.452 89.8119L128.2 90.2788L128.234 88.2791ZM102.469 88.8295L102.604 81.0867L100.604 81.0518L100.469 88.7946L102.469 88.8295ZM101.587 82.0691L136.845 82.6845L136.88 80.6848L101.622 80.0694L101.587 82.0691ZM145.522 131.994L146.522 132.012L146.529 131.592L146.235 131.293L145.522 131.994ZM145.259 147.096L145.813 147.928L146.249 147.637L146.258 147.114L145.259 147.096ZM139.365 151.026L138.654 151.729L139.234 152.315L139.92 151.858L139.365 151.026ZM134.207 145.815L133.658 144.98L132.638 145.651L133.497 146.519L134.207 145.815ZM138.092 143.258L138.642 144.094L139.083 143.804L139.092 143.276L138.092 143.258ZM138.237 135.004L139.236 135.021L139.244 134.607L138.956 134.309L138.237 135.004ZM136.225 132.92L136.944 132.226L136.656 131.928L136.242 131.92L136.225 132.92ZM128.226 132.781L128.243 131.781L127.243 131.763L127.226 132.763L128.226 132.781ZM128.046 143.083L128.029 144.083L129.028 144.1L129.046 143.101L128.046 143.083ZM120.879 142.958L119.879 142.941L119.862 143.94L120.862 143.958L120.879 142.958ZM121.059 132.656L122.059 132.673L122.076 131.673L121.076 131.656L121.059 132.656ZM100.71 132.3L99.7101 132.283L99.6927 133.283L100.693 133.3L100.71 132.3ZM100.845 124.558L100.863 123.558L99.8627 123.54L99.8453 124.54L100.845 124.558ZM121.194 124.913L121.177 125.913L122.176 125.93L122.194 124.93L121.194 124.913ZM121.283 119.794L121.301 118.794L120.301 118.776L120.284 119.776L121.283 119.794ZM128.45 119.919L129.45 119.936L129.468 118.936L128.468 118.919L128.45 119.919ZM128.361 125.038L127.361 125.02L127.344 126.02L128.343 126.038L128.361 125.038ZM138.855 125.221L139.568 124.52L139.281 124.228L138.873 124.221L138.855 125.221ZM144.522 131.977L144.259 147.079L146.258 147.114L146.522 132.012L144.522 131.977ZM144.704 146.264L138.81 150.194L139.92 151.858L145.813 147.928L144.704 146.264ZM140.076 150.322L134.918 145.112L133.497 146.519L138.654 151.729L140.076 150.322ZM134.757 146.65L138.642 144.094L137.543 142.423L133.658 144.98L134.757 146.65ZM139.092 143.276L139.236 135.021L137.237 134.986L137.093 143.241L139.092 143.276ZM138.956 134.309L136.944 132.226L135.505 133.615L137.517 135.698L138.956 134.309ZM136.242 131.92L128.243 131.781L128.208 133.781L136.207 133.92L136.242 131.92ZM127.226 132.763L127.046 143.066L129.046 143.101L129.226 132.798L127.226 132.763ZM128.063 142.083L120.897 141.958L120.862 143.958L128.029 144.083L128.063 142.083ZM121.879 142.975L122.059 132.673L120.059 132.638L119.879 142.941L121.879 142.975ZM121.076 131.656L100.727 131.301L100.693 133.3L121.041 133.655L121.076 131.656ZM101.71 132.318L101.845 124.575L99.8453 124.54L99.7101 132.283L101.71 132.318ZM100.828 125.557L121.177 125.913L121.211 123.913L100.863 123.558L100.828 125.557ZM122.194 124.93L122.283 119.811L120.284 119.776L120.194 124.895L122.194 124.93ZM121.266 120.793L128.433 120.918L128.468 118.919L121.301 118.794L121.266 120.793ZM127.45 119.901L127.361 125.02L129.361 125.055L129.45 119.936L127.45 119.901ZM128.343 126.038L138.838 126.221L138.873 124.221L128.378 124.038L128.343 126.038ZM138.143 125.923L144.809 132.696L146.235 131.293L139.568 124.52L138.143 125.923ZM136.692 161.132L137.692 161.149L137.71 160.149L136.71 160.132L136.692 161.132ZM136.505 171.882L137.049 172.721L137.495 172.431L137.504 171.9L136.505 171.882ZM127.959 177.43L127.941 178.43L128.247 178.435L128.503 178.269L127.959 177.43ZM106.906 177.062L106.923 176.063L105.923 176.045L105.906 177.045L106.906 177.062ZM106.701 188.773L106.684 189.772L107.684 189.79L107.701 188.79L106.701 188.773ZM99.7264 188.651L98.7265 188.633L98.7091 189.633L99.7089 189.651L99.7264 188.651ZM100.265 157.808L100.282 156.808L99.2824 156.79L99.2649 157.79L100.265 157.808ZM107.24 157.929L108.24 157.947L108.257 156.947L107.257 156.929L107.24 157.929ZM107.035 169.639L106.035 169.622L106.018 170.622L107.018 170.639L107.035 169.639ZM126.744 169.984L126.727 170.983L127.035 170.989L127.293 170.819L126.744 169.984ZM129.593 168.113L130.142 168.949L130.584 168.659L130.593 168.13L129.593 168.113ZM129.717 161.01L129.735 160.01L128.735 159.993L128.717 160.993L129.717 161.01ZM143.587 169.509L143.605 168.51L142.605 168.492L142.587 169.492L143.587 169.509ZM143.431 178.468L142.431 178.451L142.413 179.45L143.413 179.468L143.431 178.468ZM152.389 178.624L152.372 179.624L153.372 179.642L153.389 178.642L152.389 178.624ZM152.546 169.666L153.546 169.683L153.563 168.683L152.563 168.666L152.546 169.666ZM135.692 161.114L135.505 171.865L137.504 171.9L137.692 161.149L135.692 161.114ZM135.96 171.043L127.414 176.591L128.503 178.269L137.049 172.721L135.96 171.043ZM127.976 176.43L106.923 176.063L106.888 178.062L127.941 178.43L127.976 176.43ZM105.906 177.045L105.701 188.755L107.701 188.79L107.906 177.08L105.906 177.045ZM106.719 187.773L99.7438 187.651L99.7089 189.651L106.684 189.772L106.719 187.773ZM100.726 188.668L101.265 157.825L99.2649 157.79L98.7265 188.633L100.726 188.668ZM100.247 158.807L107.222 158.929L107.257 156.929L100.282 156.808L100.247 158.807ZM106.24 157.912L106.035 169.622L108.035 169.657L108.24 157.947L106.24 157.912ZM107.018 170.639L126.727 170.983L126.762 168.984L107.053 168.64L107.018 170.639ZM127.293 170.819L130.142 168.949L129.045 167.277L126.195 169.148L127.293 170.819ZM130.593 168.13L130.717 161.027L128.717 160.993L128.594 168.095L130.593 168.13ZM129.7 162.01L136.675 162.132L136.71 160.132L129.735 160.01L129.7 162.01ZM142.587 169.492L142.431 178.451L144.431 178.485L144.587 169.527L142.587 169.492ZM143.413 179.468L152.372 179.624L152.407 177.625L143.448 177.468L143.413 179.468ZM153.389 178.642L153.546 169.683L151.546 169.648L151.39 178.607L153.389 178.642ZM152.563 168.666L143.605 168.51L143.57 170.509L152.528 170.666L152.563 168.666ZM148.33 220.519L149.329 220.536L149.347 219.537L148.347 219.519L148.33 220.519ZM148.194 228.262L148.177 229.262L149.177 229.279L149.194 228.279L148.194 228.262ZM99.0499 227.404L98.0501 227.386L98.0326 228.386L99.0325 228.404L99.0499 227.404ZM99.1851 219.661L99.2025 218.661L98.2027 218.644L98.1852 219.644L99.1851 219.661ZM101.297 219.698L101.279 220.698L103.062 220.729L102.159 219.191L101.297 219.698ZM99.2454 216.206L98.2456 216.188L98.2406 216.469L98.3832 216.712L99.2454 216.206ZM99.4867 202.384L98.938 201.548L98.496 201.838L98.4868 202.366L99.4867 202.384ZM108.228 196.647L108.246 195.648L107.937 195.642L107.679 195.811L108.228 196.647ZM128.705 197.005L129.406 196.291L129.121 196.012L128.722 196.005L128.705 197.005ZM134.809 203L135.809 203.018L135.817 202.588L135.51 202.287L134.809 203ZM134.568 216.822L135.412 217.358L135.563 217.121L135.568 216.84L134.568 216.822ZM132.396 220.241L131.552 219.705L130.596 221.21L132.379 221.241L132.396 220.241ZM109.437 204.414L109.454 203.414L109.149 203.409L108.892 203.575L109.437 204.414ZM106.653 206.221L106.108 205.383L105.662 205.672L105.653 206.204L106.653 206.221ZM106.436 218.635L105.436 218.618L105.429 219.032L105.717 219.33L106.436 218.635ZM107.568 219.807L106.848 220.502L107.136 220.8L107.55 220.807L107.568 219.807ZM124.461 220.102L124.444 221.102L124.744 221.107L124.997 220.947L124.461 220.102ZM127.309 218.296L127.845 219.14L128.3 218.852L128.309 218.313L127.309 218.296ZM127.524 206.01L128.524 206.027L128.531 205.599L128.226 205.298L127.524 206.01ZM126.202 204.706L126.904 203.994L126.62 203.713L126.22 203.706L126.202 204.706ZM147.33 220.501L147.195 228.244L149.194 228.279L149.329 220.536L147.33 220.501ZM148.212 227.262L99.0674 226.404L99.0325 228.404L148.177 229.262L148.212 227.262ZM100.05 227.421L100.185 219.679L98.1852 219.644L98.0501 227.386L100.05 227.421ZM99.1676 220.661L101.279 220.698L101.314 218.698L99.2025 218.661L99.1676 220.661ZM102.159 219.191L100.108 215.699L98.3832 216.712L100.435 220.204L102.159 219.191ZM100.245 216.223L100.487 202.401L98.4868 202.366L98.2456 216.188L100.245 216.223ZM100.035 203.22L108.777 197.483L107.679 195.811L98.938 201.548L100.035 203.22ZM108.211 197.647L128.688 198.005L128.722 196.005L108.246 195.648L108.211 197.647ZM128.004 197.718L134.109 203.714L135.51 202.287L129.406 196.291L128.004 197.718ZM133.809 202.983L133.568 216.805L135.568 216.84L135.809 203.018L133.809 202.983ZM133.724 216.286L131.552 219.705L133.24 220.777L135.412 217.358L133.724 216.286ZM132.379 221.241L148.312 221.519L148.347 219.519L132.413 219.241L132.379 221.241ZM108.892 203.575L106.108 205.383L107.197 207.06L109.981 205.252L108.892 203.575ZM105.653 206.204L105.436 218.618L107.436 218.653L107.653 206.239L105.653 206.204ZM105.717 219.33L106.848 220.502L108.287 219.113L107.155 217.941L105.717 219.33ZM107.55 220.807L124.444 221.102L124.479 219.102L107.585 218.808L107.55 220.807ZM124.997 220.947L127.845 219.14L126.774 217.451L123.926 219.258L124.997 220.947ZM128.309 218.313L128.524 206.027L126.524 205.992L126.309 218.278L128.309 218.313ZM128.226 205.298L126.904 203.994L125.5 205.418L126.821 206.722L128.226 205.298ZM126.22 203.706L109.454 203.414L109.419 205.414L126.185 205.706L126.22 203.706ZM134.207 241.179L135.207 241.196L135.214 240.772L134.915 240.472L134.207 241.179ZM133.877 260.056L134.419 260.896L134.868 260.607L134.877 260.073L133.877 260.056ZM125.073 265.727L124.363 266.432L124.934 267.006L125.615 266.568L125.073 265.727ZM113.625 254.197L112.625 254.18L112.617 254.602L112.915 254.902L113.625 254.197ZM113.829 242.487L114.829 242.505L114.846 241.505L113.846 241.487L113.829 242.487ZM109.222 242.407L109.239 241.407L108.931 241.401L108.673 241.57L109.222 242.407ZM106.178 244.402L105.63 243.566L105.188 243.856L105.179 244.384L106.178 244.402ZM105.964 256.688L104.964 256.671L104.957 257.095L105.257 257.395L105.964 256.688ZM109.55 260.271L110.159 261.065L111.064 260.37L110.257 259.564L109.55 260.271ZM103.841 264.652L103.134 265.36L103.754 265.979L104.449 265.446L103.841 264.652ZM98.493 259.31L97.4932 259.293L97.4858 259.717L97.7863 260.018L98.493 259.31ZM98.8225 240.433L98.2809 239.592L97.832 239.882L97.8227 240.415L98.8225 240.433ZM107.238 235.011L107.256 234.011L106.952 234.006L106.697 234.17L107.238 235.011ZM128.419 235.381L129.127 234.674L128.841 234.388L128.437 234.381L128.419 235.381ZM125.219 242.686L125.924 241.976L125.638 241.693L125.237 241.686L125.219 242.686ZM120.292 242.6L120.309 241.6L119.31 241.583L119.292 242.583L120.292 242.6ZM120.137 251.495L119.137 251.477L119.129 251.907L119.436 252.208L120.137 251.495ZM125.045 256.317L124.344 257.03L124.925 257.601L125.602 257.148L125.045 256.317ZM126.535 255.319L127.092 256.15L127.526 255.859L127.535 255.336L126.535 255.319ZM126.729 244.185L127.729 244.202L127.737 243.775L127.434 243.475L126.729 244.185ZM133.207 241.161L132.878 260.038L134.877 260.073L135.207 241.196L133.207 241.161ZM133.336 259.215L124.532 264.886L125.615 266.568L134.419 260.896L133.336 259.215ZM125.783 265.022L114.334 253.493L112.915 254.902L124.363 266.432L125.783 265.022ZM114.624 254.215L114.829 242.505L112.829 242.47L112.625 254.18L114.624 254.215ZM113.846 241.487L109.239 241.407L109.204 243.407L113.812 243.487L113.846 241.487ZM108.673 241.57L105.63 243.566L106.727 245.238L109.77 243.243L108.673 241.57ZM105.179 244.384L104.964 256.671L106.964 256.705L107.178 244.419L105.179 244.384ZM105.257 257.395L108.843 260.979L110.257 259.564L106.671 255.981L105.257 257.395ZM108.941 259.478L103.232 263.859L104.449 265.446L110.159 261.065L108.941 259.478ZM104.547 263.945L99.1998 258.603L97.7863 260.018L103.134 265.36L104.547 263.945ZM99.4929 259.328L99.8224 240.45L97.8227 240.415L97.4932 259.293L99.4929 259.328ZM99.3641 241.274L107.78 235.852L106.697 234.17L98.2809 239.592L99.3641 241.274ZM107.221 236.011L128.402 236.381L128.437 234.381L107.256 234.011L107.221 236.011ZM127.711 236.087L133.499 241.885L134.915 240.472L129.127 234.674L127.711 236.087ZM125.237 241.686L120.309 241.6L120.275 243.6L125.202 243.686L125.237 241.686ZM119.292 242.583L119.137 251.477L121.137 251.512L121.292 242.617L119.292 242.583ZM119.436 252.208L124.344 257.03L125.746 255.604L120.838 250.781L119.436 252.208ZM125.602 257.148L127.092 256.15L125.978 254.488L124.489 255.486L125.602 257.148ZM127.535 255.336L127.729 244.202L125.729 244.167L125.535 255.301L127.535 255.336ZM127.434 243.475L125.924 241.976L124.515 243.396L126.025 244.894L127.434 243.475ZM133.514 273.53L134.514 273.548L134.531 272.548L133.532 272.531L133.514 273.53ZM133.379 281.273L133.362 282.273L134.361 282.291L134.379 281.291L133.379 281.273ZM131.267 281.236L131.285 280.237L129.519 280.206L130.401 281.736L131.267 281.236ZM133.318 284.793L134.317 284.81L134.322 284.533L134.184 284.293L133.318 284.793ZM133.075 298.679L133.621 299.516L134.066 299.227L134.075 298.696L133.075 298.679ZM124.464 304.289L124.447 305.289L124.753 305.294L125.01 305.127L124.464 304.289ZM97.7161 303.822L96.7162 303.805L96.6988 304.805L97.6986 304.822L97.7161 303.822ZM97.8512 296.079L97.8687 295.08L96.8688 295.062L96.8514 296.062L97.8512 296.079ZM123.191 296.522L123.174 297.522L123.48 297.527L123.736 297.36L123.191 296.522ZM125.975 294.714L126.52 295.553L126.966 295.263L126.975 294.732L125.975 294.714ZM126.192 282.3L127.192 282.317L127.2 281.858L126.856 281.552L126.192 282.3ZM124.868 281.125L125.532 280.377L125.256 280.131L124.886 280.125L124.868 281.125ZM98.1204 280.658L97.1205 280.64L97.1031 281.64L98.1029 281.658L98.1204 280.658ZM98.2555 272.915L98.273 271.915L97.2731 271.898L97.2557 272.898L98.2555 272.915ZM132.514 273.513L132.379 281.256L134.379 281.291L134.514 273.548L132.514 273.513ZM133.396 280.273L131.285 280.237L131.25 282.236L133.362 282.273L133.396 280.273ZM130.401 281.736L132.451 285.292L134.184 284.293L132.134 280.737L130.401 281.736ZM132.318 284.775L132.075 298.661L134.075 298.696L134.317 284.81L132.318 284.775ZM132.529 297.841L123.918 303.451L125.01 305.127L133.621 299.516L132.529 297.841ZM124.481 303.289L97.7335 302.822L97.6986 304.822L124.447 305.289L124.481 303.289ZM98.7159 303.84L98.8511 296.097L96.8514 296.062L96.7162 303.805L98.7159 303.84ZM97.8338 297.079L123.174 297.522L123.209 295.522L97.8687 295.08L97.8338 297.079ZM123.736 297.36L126.52 295.553L125.431 293.875L122.647 295.683L123.736 297.36ZM126.975 294.732L127.192 282.317L125.192 282.283L124.975 294.697L126.975 294.732ZM126.856 281.552L125.532 280.377L124.204 281.872L125.528 283.048L126.856 281.552ZM124.886 280.125L98.1378 279.658L98.1029 281.658L124.851 282.125L124.886 280.125ZM99.1202 280.675L99.2554 272.932L97.2557 272.898L97.1205 280.64L99.1202 280.675ZM98.2381 273.915L133.497 274.53L133.532 272.531L98.273 271.915L98.2381 273.915ZM145.342 318.327L146.342 318.344L146.359 317.344L145.36 317.327L145.342 318.327ZM145.207 326.069L145.19 327.069L146.189 327.087L146.207 326.087L145.207 326.069ZM132.665 325.851L132.682 324.851L131.683 324.833L131.665 325.833L132.665 325.851ZM132.484 336.217L132.467 337.217L133.466 337.234L133.484 336.234L132.484 336.217ZM125.253 336.091L124.253 336.073L124.236 337.073L125.236 337.091L125.253 336.091ZM125.434 325.724L126.434 325.742L126.451 324.742L125.451 324.725L125.434 325.724ZM107.325 325.408L107.342 324.408L107.045 324.403L106.794 324.561L107.325 325.408ZM104.542 327.152L104.011 326.305L103.552 326.592L103.542 327.135L104.542 327.152ZM104.448 332.527L103.448 332.51L103.441 332.924L103.729 333.222L104.448 332.527ZM108.912 337.15L109.465 337.983L110.466 337.319L109.631 336.455L108.912 337.15ZM102.89 341.141L102.194 341.86L102.772 342.419L103.442 341.975L102.89 341.141ZM97.1614 335.6L96.1615 335.583L96.1539 336.017L96.4661 336.319L97.1614 335.6ZM97.3769 323.25L96.8281 322.414L96.3863 322.704L96.3771 323.233L97.3769 323.25ZM105.924 317.639L105.942 316.639L105.633 316.633L105.375 316.803L105.924 317.639ZM125.569 317.982L125.552 318.981L126.552 318.999L126.569 317.999L125.569 317.982ZM125.659 312.862L125.676 311.862L124.676 311.845L124.659 312.845L125.659 312.862ZM132.889 312.989L133.889 313.006L133.907 312.006L132.907 311.989L132.889 312.989ZM132.8 318.108L131.8 318.09L131.783 319.09L132.783 319.108L132.8 318.108ZM144.342 318.309L144.207 326.052L146.207 326.087L146.342 318.344L144.342 318.309ZM145.224 325.07L132.682 324.851L132.647 326.85L145.19 327.069L145.224 325.07ZM131.665 325.833L131.484 336.2L133.484 336.234L133.665 325.868L131.665 325.833ZM132.501 335.217L125.271 335.091L125.236 337.091L132.467 337.217L132.501 335.217ZM126.253 336.108L126.434 325.742L124.434 325.707L124.253 336.073L126.253 336.108ZM125.451 324.725L107.342 324.408L107.307 326.408L125.417 326.724L125.451 324.725ZM106.794 324.561L104.011 326.305L105.073 327.999L107.856 326.256L106.794 324.561ZM103.542 327.135L103.448 332.51L105.448 332.545L105.542 327.169L103.542 327.135ZM103.729 333.222L108.193 337.844L109.631 336.455L105.167 331.832L103.729 333.222ZM108.36 336.316L102.337 340.308L103.442 341.975L109.465 337.983L108.36 336.316ZM103.585 340.422L97.8566 334.882L96.4661 336.319L102.194 341.86L103.585 340.422ZM98.1612 335.618L98.3768 323.268L96.3771 323.233L96.1615 335.583L98.1612 335.618ZM97.9258 324.086L106.473 318.475L105.375 316.803L96.8281 322.414L97.9258 324.086ZM105.907 318.638L125.552 318.981L125.587 316.982L105.942 316.639L105.907 318.638ZM126.569 317.999L126.658 312.88L124.659 312.845L124.569 317.964L126.569 317.999ZM125.641 313.862L132.872 313.988L132.907 311.989L125.676 311.862L125.641 313.862ZM131.89 312.971L131.8 318.09L133.8 318.125L133.889 313.006L131.89 312.971ZM132.783 319.108L145.325 319.327L145.36 317.327L132.818 317.108L132.783 319.108ZM133.344 352.978L134.343 352.995L134.361 351.995L133.361 351.978L133.344 352.978ZM133.156 363.728L133.7 364.567L134.147 364.277L134.156 363.745L133.156 363.728ZM124.61 369.276L124.592 370.275L124.898 370.281L125.154 370.114L124.61 369.276ZM103.557 368.908L103.574 367.908L102.575 367.891L102.557 368.891L103.557 368.908ZM103.353 380.618L103.335 381.618L104.335 381.636L104.352 380.636L103.353 380.618ZM96.3777 380.497L95.3778 380.479L95.3604 381.479L96.3602 381.496L96.3777 380.497ZM96.9161 349.653L96.9335 348.653L95.9337 348.636L95.9162 349.636L96.9161 349.653ZM103.891 349.775L104.891 349.792L104.908 348.793L103.908 348.775L103.891 349.775ZM103.687 361.485L102.687 361.468L102.669 362.468L103.669 362.485L103.687 361.485ZM123.396 361.829L123.378 362.829L123.687 362.835L123.944 362.665L123.396 361.829ZM126.245 359.959L126.794 360.795L127.235 360.505L127.245 359.976L126.245 359.959ZM126.369 352.856L126.386 351.856L125.386 351.839L125.369 352.838L126.369 352.856ZM140.238 361.355L140.256 360.355L139.256 360.338L139.239 361.338L140.238 361.355ZM140.082 370.314L139.082 370.296L139.065 371.296L140.065 371.314L140.082 370.314ZM149.041 370.47L149.023 371.47L150.023 371.487L150.041 370.488L149.041 370.47ZM149.197 361.512L150.197 361.529L150.214 360.529L149.215 360.512L149.197 361.512ZM132.344 352.96L132.156 363.71L134.156 363.745L134.343 352.995L132.344 352.96ZM132.611 362.889L124.065 368.437L125.154 370.114L133.7 364.567L132.611 362.889ZM124.627 368.276L103.574 367.908L103.54 369.908L124.592 370.275L124.627 368.276ZM102.557 368.891L102.353 380.601L104.352 380.636L104.557 368.926L102.557 368.891ZM103.37 379.618L96.3951 379.497L96.3602 381.496L103.335 381.618L103.37 379.618ZM97.3775 380.514L97.9159 349.671L95.9162 349.636L95.3778 380.479L97.3775 380.514ZM96.8986 350.653L103.874 350.775L103.908 348.775L96.9335 348.653L96.8986 350.653ZM102.891 349.758L102.687 361.468L104.686 361.503L104.891 349.792L102.891 349.758ZM103.669 362.485L123.378 362.829L123.413 360.829L103.704 360.485L103.669 362.485ZM123.944 362.665L126.794 360.795L125.696 359.123L122.847 360.993L123.944 362.665ZM127.245 359.976L127.369 352.873L125.369 352.838L125.245 359.941L127.245 359.976ZM126.351 353.856L133.326 353.977L133.361 351.978L126.386 351.856L126.351 353.856ZM139.239 361.338L139.082 370.296L141.082 370.331L141.238 361.373L139.239 361.338ZM140.065 371.314L149.023 371.47L149.058 369.47L140.1 369.314L140.065 371.314ZM150.041 370.488L150.197 361.529L148.197 361.494L148.041 370.453L150.041 370.488ZM149.215 360.512L140.256 360.355L140.221 362.355L149.18 362.511L149.215 360.512ZM131.545 393.695L132.545 393.713L132.562 392.713L131.562 392.696L131.545 393.695ZM131.172 415.068L131.719 415.905L132.162 415.615L132.171 415.086L131.172 415.068ZM124.502 419.432L124.485 420.432L124.793 420.438L125.05 420.269L124.502 419.432ZM95.7068 418.93L94.707 418.912L94.6895 419.912L95.6894 419.93L95.7068 418.93ZM95.842 411.187L95.8594 410.187L94.8596 410.17L94.8421 411.169L95.842 411.187ZM97.9537 411.224L97.9362 412.224L99.7021 412.254L98.82 410.724L97.9537 411.224ZM95.9034 407.667L94.9036 407.65L94.8987 407.927L95.0371 408.167L95.9034 407.667ZM96.1469 393.718L95.6039 392.878L95.1564 393.167L95.1471 393.7L96.1469 393.718ZM104.822 388.108L104.84 387.108L104.535 387.103L104.279 387.268L104.822 388.108ZM108.214 388.167L108.918 387.458L108.633 387.174L108.231 387.167L108.214 388.167ZM118.784 398.657L119.784 398.675L119.791 398.248L119.489 397.948L118.784 398.657ZM118.559 411.583L117.559 411.566L117.541 412.566L118.541 412.583L118.559 411.583ZM124.126 411.681L124.108 412.68L125.108 412.698L125.126 411.698L124.126 411.681ZM124.442 393.571L124.459 392.572L123.459 392.554L123.442 393.554L124.442 393.571ZM106.09 396.131L106.108 395.132L105.897 395.128L105.702 395.21L106.09 396.131ZM103.318 397.299L102.929 396.378L102.329 396.631L102.318 397.282L103.318 397.299ZM103.077 411.057L102.078 411.04L102.06 412.04L103.06 412.057L103.077 411.057ZM111.268 411.2L111.251 412.2L112.251 412.217L112.268 411.218L111.268 411.2ZM111.439 401.41L112.439 401.427L112.446 401.006L112.15 400.706L111.439 401.41ZM106.218 396.134L106.929 395.43L106.643 395.141L106.236 395.134L106.218 396.134ZM130.545 393.678L130.172 415.051L132.171 415.086L132.545 393.713L130.545 393.678ZM130.624 414.231L123.955 418.596L125.05 420.269L131.719 415.905L130.624 414.231ZM124.52 418.433L95.7243 417.93L95.6894 419.93L124.485 420.432L124.52 418.433ZM96.7067 418.947L96.8418 411.204L94.8421 411.169L94.707 418.912L96.7067 418.947ZM95.8245 412.187L97.9362 412.224L97.9711 410.224L95.8594 410.187L95.8245 412.187ZM98.82 410.724L96.7698 407.168L95.0371 408.167L97.0873 411.723L98.82 410.724ZM96.9033 407.685L97.1468 393.735L95.1471 393.7L94.9036 407.65L96.9033 407.685ZM96.6899 394.557L105.365 388.948L104.279 387.268L95.6039 392.878L96.6899 394.557ZM104.805 389.108L108.196 389.167L108.231 387.167L104.84 387.108L104.805 389.108ZM107.509 388.877L118.08 399.367L119.489 397.948L108.918 387.458L107.509 388.877ZM117.784 398.64L117.559 411.566L119.558 411.601L119.784 398.675L117.784 398.64ZM118.541 412.583L124.108 412.68L124.143 410.681L118.576 410.584L118.541 412.583ZM125.126 411.698L125.442 393.589L123.442 393.554L123.126 411.663L125.126 411.698ZM124.424 394.571L131.527 394.695L131.562 392.696L124.459 392.572L124.424 394.571ZM105.702 395.21L102.929 396.378L103.706 398.221L106.478 397.053L105.702 395.21ZM102.318 397.282L102.078 411.04L104.077 411.075L104.317 397.317L102.318 397.282ZM103.06 412.057L111.251 412.2L111.286 410.2L103.095 410.057L103.06 412.057ZM112.268 411.218L112.439 401.427L110.439 401.392L110.268 411.183L112.268 411.218ZM112.15 400.706L106.929 395.43L105.507 396.837L110.728 402.113L112.15 400.706ZM106.236 395.134L106.108 395.132L106.073 397.131L106.201 397.134L106.236 395.134ZM143.42 428.443L144.42 428.46L144.437 427.461L143.438 427.443L143.42 428.443ZM143.254 437.977L144.106 438.5L144.249 438.268L144.254 437.995L143.254 437.977ZM139.564 443.994L139.547 444.994L140.118 445.004L140.417 444.517L139.564 443.994ZM105.201 443.394L105.219 442.394L104.913 442.389L104.657 442.555L105.201 443.394ZM102.417 445.202L101.873 444.363L101.427 444.653L101.418 445.184L102.417 445.202ZM102.227 456.08L102.21 457.08L103.21 457.098L103.227 456.098L102.227 456.08ZM95.0606 455.955L94.0607 455.938L94.0433 456.938L95.0431 456.955L95.0606 455.955ZM95.3163 441.301L94.7705 440.463L94.3258 440.753L94.3165 441.284L95.3163 441.301ZM103.928 435.691L103.945 434.691L103.639 434.686L103.382 434.853L103.928 435.691ZM136.115 436.253L136.097 437.252L137.097 437.27L137.115 436.27L136.115 436.253ZM136.253 428.318L136.271 427.318L135.271 427.301L135.253 428.3L136.253 428.318ZM142.42 428.425L142.254 437.96L144.254 437.995L144.42 428.46L142.42 428.425ZM142.401 437.455L138.712 443.471L140.417 444.517L144.106 438.5L142.401 437.455ZM139.582 442.994L105.219 442.394L105.184 444.394L139.547 444.994L139.582 442.994ZM104.657 442.555L101.873 444.363L102.962 446.041L105.746 444.233L104.657 442.555ZM101.418 445.184L101.228 456.063L103.227 456.098L103.417 445.219L101.418 445.184ZM102.245 455.08L95.078 454.955L95.0431 456.955L102.21 457.08L102.245 455.08ZM96.0604 455.973L96.3162 441.319L94.3165 441.284L94.0607 455.938L96.0604 455.973ZM95.8622 442.139L104.473 436.529L103.382 434.853L94.7705 440.463L95.8622 442.139ZM103.91 436.691L136.097 437.252L136.132 435.253L103.945 434.691L103.91 436.691ZM137.115 436.27L137.253 428.335L135.253 428.3L135.115 436.235L137.115 436.27ZM136.236 429.318L143.403 429.443L143.438 427.443L136.271 427.318L136.236 429.318Z" fill="#D9442D" mask="url(#path-11-outside-1_22_15)"/>
</svg>
